<?xml version="1.0" standalone="no"?>
<!DOCTYPE svg PUBLIC "-//W3C//DTD SVG 20010904//EN"
 "http://www.w3.org/TR/2001/REC-SVG-20010904/DTD/svg10.dtd">
<svg version="1.0" xmlns="http://www.w3.org/2000/svg"
 width="473.000000pt" height="489.000000pt" viewBox="0 0 473.000000 489.000000"
 preserveAspectRatio="xMidYMid meet">

<g transform="translate(0.000000,489.000000) scale(0.100000,-0.100000)"
fill="#000000" stroke="none">
<path d="M2205 4476 c-28 -14 -64 -39 -80 -54 -99 -95 -187 -170 -250 -212
-139 -93 -219 -207 -256 -360 -9 -41 -22 -92 -29 -112 l-11 -38 -42 27 c-23
15 -63 44 -89 63 -67 53 -208 121 -260 127 -36 4 -58 -1 -119 -30 -128 -60
-176 -133 -187 -287 -12 -164 14 -260 110 -408 113 -173 255 -282 490 -377 37
-15 73 -25 81 -23 21 5 2 48 -21 48 -22 0 -123 40 -203 80 -174 88 -339 279
-399 461 -42 128 -18 347 47 427 45 56 78 70 158 71 63 1 79 -3 150 -40 44
-22 100 -57 125 -78 65 -53 144 -101 167 -101 27 0 36 24 74 200 25 120 111
240 225 315 67 45 150 111 204 164 22 21 64 57 94 81 51 38 60 42 108 40 29
-2 85 -2 125 -1 83 3 105 -7 178 -74 114 -106 193 -174 240 -205 133 -90 206
-206 240 -377 17 -85 43 -153 57 -153 6 0 46 26 89 58 150 108 174 124 227
148 34 15 71 24 105 24 l52 0 -25 21 c-50 40 -161 -1 -321 -121 -52 -38 -100
-69 -108 -68 -9 2 -24 41 -41 108 -32 127 -46 161 -99 238 -40 59 -106 121
-188 176 -23 15 -78 63 -122 106 -128 125 -201 167 -268 156 -46 -8 -73 -8
-133 -1 -36 5 -55 1 -95 -19z"/>
<path d="M2226 4400 c-17 -13 -62 -54 -100 -90 -38 -36 -74 -70 -80 -75 -27
-25 -167 -125 -175 -125 -17 0 -98 -86 -125 -133 -16 -26 -34 -71 -41 -99 -42
-175 -43 -188 -8 -169 59 33 240 77 418 102 106 15 396 15 515 0 172 -22 362
-71 408 -104 18 -14 16 20 -9 118 -37 150 -81 219 -185 290 -33 21 -76 54 -96
72 -21 18 -62 39 -95 49 -48 14 -69 28 -121 81 -87 89 -64 100 31 15 39 -35
40 -35 20 -7 -12 17 -37 45 -56 63 l-34 33 -119 2 c-112 2 -119 1 -148 -23z
m24 -28 c0 -21 -156 -148 -205 -167 -12 -4 -15 -9 -8 -12 7 -2 44 12 83 33 39
20 73 34 76 31 3 -3 -37 -28 -88 -56 -51 -28 -104 -60 -118 -71 l-25 -20 51
19 c29 10 72 32 97 50 25 17 49 31 54 31 4 0 28 18 52 40 24 22 46 40 50 40 3
-1 -16 -21 -43 -46 -50 -45 -133 -101 -196 -130 -116 -53 -151 -75 -201 -124
-63 -63 -101 -127 -102 -177 -1 -18 -5 -33 -10 -33 -11 0 -4 63 13 121 18 63
87 130 274 267 17 12 26 22 21 22 -13 0 115 122 167 158 45 32 58 38 58 24z
m325 -151 c45 -31 153 -77 161 -68 6 6 -102 64 -146 78 -17 6 -11 7 20 3 68
-9 139 -53 128 -80 -2 -3 6 -11 17 -17 11 -7 55 -38 97 -69 100 -75 125 -112
147 -216 15 -75 14 -79 -14 -52 -14 13 -23 26 -20 28 3 3 -1 12 -8 21 -11 14
-10 14 6 2 29 -23 30 -6 4 46 -47 91 -143 171 -302 251 -75 38 -180 107 -220
145 -16 15 87 -41 130 -72z m20 -65 c28 -14 84 -40 126 -59 46 -21 84 -45 95
-62 10 -15 39 -47 64 -71 44 -43 43 -42 -156 59 -216 109 -314 168 -149 89 55
-26 118 -56 140 -65 22 -9 56 -24 75 -32 l35 -15 -30 25 c-16 14 -79 50 -140
80 -60 30 -126 68 -145 85 l-35 32 35 -21 c19 -12 58 -32 85 -45z m-355 39
c-7 -8 -53 -40 -104 -72 -50 -31 -108 -72 -130 -90 -33 -28 -153 -93 -171 -93
-13 0 81 102 107 116 70 37 53 0 -19 -43 -24 -14 -42 -27 -40 -30 6 -6 105 54
144 88 18 15 63 46 100 68 37 22 77 46 88 55 26 20 41 20 25 1z m-15 -66 c-35
-24 -161 -89 -172 -89 -4 0 28 20 72 45 44 24 87 49 95 54 30 19 34 10 5 -10z
m340 -69 c3 -6 -1 -7 -9 -4 -18 7 -21 14 -7 14 6 0 13 -4 16 -10z m136 -56
c120 -57 182 -91 211 -117 l33 -29 -45 22 c-63 31 -240 131 -240 136 0 6 5 5
41 -12z m-91 -14 c0 -5 -5 -10 -11 -10 -5 0 -7 5 -4 10 3 6 8 10 11 10 2 0 4
-4 4 -10z m-635 -27 c-60 -42 -224 -121 -213 -103 9 14 222 128 243 129 5 1
-8 -11 -30 -26z m775 -33 c13 -8 13 -10 -2 -10 -9 0 -20 5 -23 10 -8 13 5 13
25 0z m-785 -52 c-30 -10 -79 -31 -109 -47 -31 -16 -52 -23 -48 -17 3 6 7 15
7 21 0 5 37 23 82 40 45 16 85 33 88 37 4 4 13 1 20 -5 10 -10 2 -16 -40 -29z
m875 -6 c30 -10 54 -24 53 -31 -2 -6 1 -11 5 -11 5 0 17 -7 28 -15 17 -13 15
-13 -16 0 -19 7 -34 18 -33 23 1 5 -35 17 -80 27 -45 10 -89 22 -97 27 -26 16
82 1 140 -20z m-420 11 c0 -5 -28 -9 -61 -9 -39 -1 -57 1 -48 7 17 11 109 12
109 2z m-435 -57 c-112 -37 -264 -86 -270 -86 -3 0 -5 4 -5 9 0 10 71 46 84
43 5 -2 32 4 60 12 125 38 153 45 176 45 14 0 -6 -10 -45 -23z m891 -21 c112
-36 144 -51 144 -65 0 -5 -24 0 -52 11 -29 12 -98 34 -153 51 -130 38 -155 50
-90 42 28 -3 95 -21 151 -39z m-1083 24 c-6 -6 -17 -11 -24 -12 -8 -2 -20 -6
-26 -10 -7 -5 -13 -4 -13 2 0 5 12 14 28 19 36 14 48 14 35 1z"/>
<path d="M2955 4420 c-3 -5 -1 -10 4 -10 6 0 11 5 11 10 0 6 -2 10 -4 10 -3 0
-8 -4 -11 -10z"/>
<path d="M1450 4251 c0 -5 5 -13 10 -16 6 -3 10 -2 10 4 0 5 -4 13 -10 16 -5
3 -10 2 -10 -4z"/>
<path d="M3075 4160 c3 -5 8 -10 11 -10 2 0 4 5 4 10 0 6 -5 10 -11 10 -5 0
-7 -4 -4 -10z"/>
<path d="M3750 3910 c0 -5 5 -10 10 -10 6 0 10 5 10 10 0 6 -4 10 -10 10 -5 0
-10 -4 -10 -10z"/>
<path d="M3650 3862 c86 -60 121 -141 124 -287 2 -196 -75 -375 -231 -531 -69
-69 -99 -90 -185 -133 -57 -27 -122 -56 -146 -63 -36 -11 -46 -20 -67 -64 -31
-64 -31 -91 0 -134 14 -19 25 -45 25 -59 0 -33 -70 -140 -170 -260 -28 -33
-60 -44 -116 -37 -49 6 -55 4 -70 -19 -12 -18 -17 -54 -20 -125 -3 -85 -7
-105 -26 -130 -22 -30 -99 -80 -123 -80 -7 0 -18 -6 -24 -14 -7 -8 -31 -16
-54 -19 -23 -3 -62 -9 -87 -13 -102 -15 -293 -4 -341 20 -18 9 -39 16 -46 16
-8 0 -26 9 -40 20 -14 11 -32 20 -39 20 -7 0 -27 20 -44 46 -30 42 -32 51 -32
134 -1 67 -6 97 -19 119 -17 28 -20 29 -78 24 -52 -5 -65 -3 -93 17 -30 20
-118 128 -118 145 0 3 -14 26 -31 51 -43 63 -48 102 -15 141 38 45 41 103 5
103 -18 0 -20 -4 -15 -25 5 -19 0 -35 -19 -59 -36 -47 -34 -104 5 -161 17 -24
30 -47 30 -50 0 -11 62 -96 100 -138 51 -56 83 -70 147 -64 29 3 55 2 58 -3 3
-4 7 -54 10 -111 5 -95 8 -107 34 -139 31 -38 104 -85 153 -98 17 -4 33 -13
35 -19 5 -13 -80 1 -115 19 -37 19 -47 -8 -16 -45 23 -27 24 -34 24 -182 0
-147 -1 -155 -22 -169 -20 -15 -21 -16 -5 -34 10 -11 15 -26 12 -35 -4 -8 -2
-18 4 -22 7 -4 11 -63 11 -164 0 -131 -3 -161 -15 -171 -9 -7 -15 -23 -13 -34
2 -16 9 -20 28 -18 14 2 50 3 82 2 61 -1 79 11 54 38 -11 13 -17 52 -22 148
-8 149 -3 184 26 184 34 0 49 -40 60 -160 13 -143 23 -188 48 -213 23 -23 93
-27 117 -7 23 19 18 49 -9 59 -27 11 -33 34 -46 166 -14 145 -24 176 -60 195
-27 14 -25 23 9 43 38 22 71 107 71 180 0 60 -23 143 -47 169 -15 17 -14 18
18 18 19 1 64 2 102 3 37 1 67 1 67 -1 0 -1 -4 -10 -10 -20 -27 -48 -50 -150
-50 -223 0 -78 0 -79 -32 -95 l-31 -16 22 -17 c28 -22 40 -75 41 -179 0 -190
85 -304 202 -272 75 21 122 123 134 292 4 53 13 104 22 119 15 27 14 32 -13
79 -10 16 -15 54 -15 110 0 60 -6 102 -20 139 -20 56 -63 111 -87 111 -27 0
-10 16 47 45 35 17 73 46 92 68 30 38 31 44 33 138 2 116 10 132 64 123 53 -8
125 28 162 80 16 23 34 47 41 55 7 8 27 37 45 65 80 126 84 146 44 206 -26 39
-27 45 -17 81 14 48 17 51 91 79 186 72 285 146 404 299 47 60 99 165 131 261
15 47 21 92 22 162 l1 97 -51 105 c-52 105 -79 136 -117 135 -18 0 -18 -1 5
-17z m-1020 -2084 c17 -19 20 -35 20 -120 0 -60 -5 -106 -12 -118 -10 -15 -10
-22 0 -32 18 -18 15 -65 -5 -77 -17 -9 -17 -10 1 -29 15 -18 17 -34 13 -116
-5 -126 -37 -177 -79 -128 -19 21 -33 191 -20 237 5 18 4 43 -1 62 -9 27 -7
36 8 53 17 18 17 21 2 38 -13 14 -15 34 -10 117 7 129 34 166 83 113z m-416
-10 c11 -15 16 -45 16 -95 0 -99 -21 -145 -73 -158 l-27 -7 0 95 c0 52 3 115
6 141 6 42 9 46 35 46 17 0 34 -8 43 -22z m276 12 c0 -5 -5 -10 -11 -10 -5 0
-7 5 -4 10 3 6 8 10 11 10 2 0 4 -4 4 -10z m-430 -284 c0 -3 -4 -8 -10 -11 -5
-3 -10 -1 -10 4 0 6 5 11 10 11 6 0 10 -2 10 -4z m433 -221 c-3 -9 -8 -14 -10
-11 -3 3 -2 9 2 15 9 16 15 13 8 -4z m-413 -45 c0 -5 -4 -10 -10 -10 -5 0 -10
5 -10 10 0 6 5 10 10 10 6 0 10 -4 10 -10z m20 -91 c0 -6 -4 -7 -10 -4 -5 3
-10 11 -10 16 0 6 5 7 10 4 6 -3 10 -11 10 -16z"/>
<path d="M1025 3795 c-25 -24 -45 -53 -45 -63 0 -15 10 -10 44 24 41 41 47 44
99 44 80 0 94 -7 325 -174 98 -71 199 -125 270 -147 24 -7 46 -17 49 -22 4 -7
-1 -7 -13 -3 -10 5 -32 12 -49 17 l-30 9 25 -19 c29 -23 186 -76 250 -86 25
-4 92 -16 150 -28 139 -28 392 -30 525 -4 50 10 104 21 120 24 17 3 53 14 80
25 28 11 65 22 84 24 48 7 118 44 101 54 -10 6 -2 13 25 24 20 9 41 16 45 16
24 0 250 153 315 213 48 44 122 77 172 77 42 0 55 -5 85 -32 19 -18 40 -45 46
-60 10 -24 5 -21 -31 16 -56 58 -103 69 -164 36 -50 -26 -51 -35 -4 -19 51 18
121 6 148 -26 30 -34 30 -55 1 -27 -68 63 -175 46 -273 -45 -22 -21 -160 -105
-189 -116 -10 -4 -16 -10 -13 -13 9 -9 126 53 197 106 36 26 80 55 99 65 40
20 112 23 145 5 28 -14 76 -96 77 -131 l1 -24 8 25 c14 42 9 -89 -5 -140 -25
-89 -155 -317 -174 -305 -5 2 -17 -2 -27 -10 -10 -8 -14 -15 -8 -15 5 0 16 6
24 13 8 6 4 -1 -10 -16 -34 -38 -143 -118 -208 -152 -46 -24 -73 -45 -58 -45
11 0 142 67 181 92 119 76 227 223 290 393 46 124 33 334 -26 409 -52 67 -146
75 -250 22 -37 -18 -75 -41 -85 -51 -126 -114 -412 -285 -559 -333 -212 -71
-485 -88 -680 -43 -168 38 -206 51 -328 113 -133 66 -255 142 -367 228 -117
90 -185 120 -270 120 -70 0 -71 0 -115 -45z m1964 -328 c-2 -1 -13 -9 -24 -17
-19 -14 -19 -14 -6 3 7 9 18 17 24 17 6 0 8 -1 6 -3z"/>
<path d="M3785 3821 c-3 -5 -1 -12 5 -16 5 -3 10 1 10 9 0 18 -6 21 -15 7z"/>
<path d="M2347 3760 c-15 -39 -16 -40 -66 -40 -28 0 -51 -4 -51 -9 0 -5 16
-19 35 -31 35 -22 35 -23 29 -72 l-7 -50 40 25 40 25 42 -24 c39 -24 41 -24
41 -5 0 11 -4 31 -10 45 -8 22 -5 28 30 54 22 16 37 32 33 35 -3 4 -28 7 -54
7 -41 0 -49 3 -55 23 -4 12 -12 30 -19 40 -11 15 -14 13 -28 -23z"/>
<path d="M1059 3759 c-65 -38 -97 -111 -98 -224 -1 -128 40 -232 151 -378 57
-74 106 -117 213 -184 53 -33 145 -76 151 -70 2 2 -35 27 -84 56 -79 46 -169
112 -132 96 8 -4 -1 7 -20 24 -38 33 -60 41 -39 14 13 -16 12 -17 -3 -5 -10 8
-14 20 -11 29 5 13 2 15 -12 9 -11 -4 -16 -4 -12 0 4 4 -4 19 -17 33 -28 31
-119 167 -130 196 -8 21 -35 124 -36 138 0 4 5 7 10 7 6 0 10 -8 10 -19 0 -22
29 -95 35 -89 3 2 1 18 -5 34 -27 88 -32 117 -28 172 9 128 79 177 204 143 72
-20 76 -13 9 18 -56 27 -110 26 -156 0z"/>
<path d="M1900 3718 c-12 -25 -22 -34 -45 -36 -43 -5 -50 -17 -21 -35 21 -14
23 -21 19 -58 l-6 -43 30 22 c37 26 46 27 80 5 l26 -17 -7 38 c-7 35 -5 41 21
62 l28 23 -41 6 c-33 6 -44 13 -56 37 l-14 30 -14 -34z"/>
<path d="M2806 3716 c-4 -17 -15 -25 -41 -30 -39 -8 -45 -20 -16 -36 14 -7 21
-23 23 -51 l3 -41 28 22 27 21 28 -21 c22 -18 28 -19 30 -6 2 8 -1 24 -7 34
-9 16 -6 23 14 36 33 22 31 36 -5 36 -23 0 -33 7 -45 30 -19 36 -31 38 -39 6z"/>
<path d="M1100 3723 c-61 -24 -92 -115 -71 -208 7 -30 17 -57 22 -60 5 -4 5 5
-1 20 -15 39 -12 138 5 179 39 93 155 75 313 -45 35 -27 82 -58 105 -68 78
-36 170 -71 174 -67 2 2 -35 20 -82 39 -87 37 -152 76 -215 130 -65 56 -201
100 -250 80z"/>
<path d="M1103 3665 c-13 -9 -28 -26 -34 -38 -10 -18 -6 -17 19 7 28 26 36 28
87 24 66 -6 60 12 -7 19 -30 3 -50 -1 -65 -12z"/>
<path d="M3503 3663 c-13 -2 -23 -8 -23 -12 0 -5 17 -4 38 2 56 15 107 -10
132 -65 23 -50 27 -37 5 16 -23 54 -74 74 -152 59z"/>
<path d="M1682 3648 c-14 -14 -16 -38 -3 -38 8 0 23 41 17 47 -1 1 -8 -3 -14
-9z"/>
<path d="M3030 3646 c0 -8 5 -18 10 -21 6 -3 10 3 10 14 0 12 -4 21 -10 21 -5
0 -10 -6 -10 -14z"/>
<path d="M2120 3629 c0 -5 5 -7 10 -4 6 3 10 8 10 11 0 2 -4 4 -10 4 -5 0 -10
-5 -10 -11z"/>
<path d="M1110 3605 c-9 -10 -9 -15 -1 -15 6 0 11 4 11 9 0 5 8 12 18 14 14 4
14 5 1 6 -9 0 -22 -6 -29 -14z"/>
<path d="M3560 3613 c8 -3 22 -11 30 -17 13 -10 13 -9 1 7 -7 9 -21 17 -30 16
-13 0 -14 -1 -1 -6z"/>
<path d="M2105 3560 c-3 -5 -2 -10 4 -10 5 0 13 5 16 10 3 6 2 10 -4 10 -5 0
-13 -4 -16 -10z"/>
<path d="M2848 3515 c-3 -3 -231 -5 -507 -5 -275 0 -501 -2 -501 -5 0 -9 94
-48 150 -63 232 -60 383 -75 516 -52 188 34 366 88 372 115 3 11 -21 19 -30
10z m-75 -22 c-7 -2 -19 -2 -25 0 -7 3 -2 5 12 5 14 0 19 -2 13 -5z m-333 -13
c0 -5 -4 -10 -10 -10 -5 0 -10 5 -10 10 0 6 5 10 10 10 6 0 10 -4 10 -10z
m-273 -26 c-3 -3 -12 -4 -19 -1 -8 3 -5 6 6 6 11 1 17 -2 13 -5z"/>
<path d="M3670 3485 c0 -19 -7 -52 -15 -72 -8 -20 -13 -38 -10 -41 7 -7 36 65
42 104 3 18 0 34 -6 38 -7 5 -11 -5 -11 -29z"/>
<path d="M3130 3500 c-8 -5 -10 -10 -5 -10 6 0 17 5 25 10 8 5 11 10 5 10 -5
0 -17 -5 -25 -10z"/>
<path d="M3631 3474 c0 -11 3 -14 6 -6 3 7 2 16 -1 19 -3 4 -6 -2 -5 -13z"/>
<path d="M4035 3480 c-3 -6 1 -7 9 -4 18 7 21 14 7 14 -6 0 -13 -4 -16 -10z"/>
<path d="M851 3414 c0 -11 3 -14 6 -6 3 7 2 16 -1 19 -3 4 -6 -2 -5 -13z"/>
<path d="M1040 3371 c0 -6 4 -13 10 -16 6 -3 7 1 4 9 -7 18 -14 21 -14 7z"/>
<path d="M1763 3344 c-3 -8 -3 -41 1 -72 7 -63 -3 -62 -21 1 l-12 42 3 -45 c1
-25 9 -66 16 -92 13 -43 12 -54 -5 -103 -10 -31 -25 -61 -33 -68 -25 -20 -62
-115 -62 -159 0 -23 3 -38 7 -34 5 5 53 -95 53 -112 0 -3 -11 5 -26 19 -22 21
-24 21 -18 4 5 -11 14 -31 21 -45 11 -21 11 -25 -3 -28 -12 -3 -14 -12 -9 -45
7 -42 7 -42 -10 -19 -10 13 -17 35 -17 50 l0 25 -19 -24 c-40 -52 -36 -66 64
-199 62 -82 95 -110 130 -110 35 0 34 12 -3 28 -16 8 -30 17 -30 22 0 4 18 0
40 -11 42 -21 75 -25 65 -9 -3 6 -14 10 -23 10 -25 0 -92 48 -92 66 0 13 2 13
14 1 8 -7 36 -22 62 -32 53 -19 104 -61 136 -113 22 -36 34 -37 23 -1 -12 36
-85 108 -131 129 -44 19 -54 33 -32 46 7 5 9 2 5 -9 -4 -12 6 -20 46 -33 91
-30 127 -70 147 -170 9 -42 9 -59 1 -62 -6 -2 -12 -11 -12 -20 -1 -9 -5 1 -9
23 -7 37 -7 35 -9 -22 -1 -62 10 -89 24 -55 7 16 8 15 16 -3 7 -16 8 -13 5 12
-3 18 -1 35 4 38 6 3 10 -1 10 -10 0 -9 5 -13 10 -10 7 4 9 -2 5 -17 -3 -13 0
-31 9 -43 15 -19 15 -18 16 18 0 20 5 37 10 37 6 0 10 -13 10 -29 0 -35 7 -40
56 -47 27 -3 40 0 50 13 13 17 13 17 14 -1 0 -20 0 -20 15 0 12 15 16 16 24 5
5 -8 32 -14 75 -15 62 -2 66 -1 60 18 -6 18 -5 19 9 8 9 -8 22 -10 28 -6 8 5
10 2 7 -8 -5 -11 1 -15 21 -15 26 0 27 2 25 48 -2 27 1 51 5 54 11 6 25 -70
16 -85 -7 -11 5 -13 29 -4 10 4 16 18 16 36 0 17 4 27 10 23 6 -3 10 -19 10
-36 0 -16 4 -29 10 -29 15 0 23 46 15 88 -9 48 2 38 14 -14 l9 -39 2 40 2 40
10 -43 c13 -60 33 -49 34 19 1 30 0 44 -3 32 -2 -13 -9 -23 -14 -23 -21 0 -13
103 13 157 23 50 53 74 128 102 66 25 80 19 19 -8 -53 -24 -107 -74 -125 -118
-20 -48 -17 -52 10 -13 32 47 79 86 151 122 33 17 65 38 72 47 7 9 13 11 13 5
0 -16 -75 -82 -108 -96 l-27 -10 30 -14 c60 -26 82 -17 132 57 17 25 39 51 48
59 22 19 85 117 85 133 -1 14 -28 52 -34 46 -2 -2 -13 -20 -25 -39 -18 -31
-21 -32 -21 -12 0 13 7 37 16 53 l15 30 -31 -16 -31 -16 26 47 c26 47 27 73 0
38 -24 -32 -18 3 11 60 21 41 25 60 20 99 -4 41 -34 100 -57 117 -17 12 -49
104 -49 138 0 20 6 55 14 77 19 57 29 128 16 120 -5 -3 -10 -23 -10 -43 0 -20
-5 -44 -10 -52 -7 -11 -10 3 -10 47 0 34 -4 65 -10 68 -6 4 -10 -10 -10 -36 0
-40 -1 -41 -18 -26 -31 28 -91 29 -284 3 -210 -29 -361 -33 -488 -12 -142 23
-286 39 -301 33 -8 -3 0 -6 16 -6 40 -2 124 -24 160 -44 38 -20 30 -21 -42 -2
-66 17 -140 19 -178 5 -23 -9 -26 -8 -23 7 2 9 14 20 28 25 21 6 20 7 -10 5
-33 -2 -35 0 -32 26 3 30 -5 36 -15 11z m1128 -46 c43 -14 60 -37 48 -60 -8
-15 -13 -16 -56 -3 -47 14 -121 8 -163 -15 -23 -12 -30 -13 -30 -2 0 5 31 20
69 33 68 22 72 23 120 7 55 -17 72 -7 20 11 -44 15 -94 14 -163 -4 -63 -17
-87 -13 -40 6 102 40 142 45 195 27z m-897 -56 c60 -27 57 -37 -4 -15 -52 18
-109 21 -162 9 -47 -10 -51 7 -5 22 45 16 114 9 171 -16z m-20 -31 c16 -6 27
-14 24 -17 -3 -2 -18 0 -34 7 -18 6 -57 8 -99 5 -67 -6 -69 -5 -40 9 33 16
103 14 149 -4z m476 15 c0 -3 -4 -8 -10 -11 -5 -3 -10 -1 -10 4 0 6 5 11 10
11 6 0 10 -2 10 -4z m427 -8 c18 -7 33 -16 33 -21 0 -5 -10 -6 -22 -2 -28 10
-104 11 -138 1 -14 -3 -7 2 15 13 48 23 68 25 112 9z m-949 -45 c-9 -2 -18
-14 -20 -26 -3 -20 -4 -19 -9 6 -6 24 -4 27 20 26 16 -1 19 -3 9 -6z m747 -33
c3 -5 2 -10 -4 -10 -5 0 -13 5 -16 10 -3 6 -2 10 4 10 5 0 13 -4 16 -10z
m-589 -76 l34 -35 0 26 c0 34 17 24 25 -16 4 -18 16 -35 31 -41 13 -6 21 -15
18 -20 -3 -5 0 -7 7 -6 7 2 13 -3 14 -11 0 -14 25 -30 25 -16 0 15 -32 65 -47
74 -10 5 -15 12 -11 16 3 3 24 -11 47 -33 42 -40 52 -37 26 8 -24 42 -16 47
16 10 22 -25 29 -29 26 -15 -21 89 -19 96 9 38 l18 -38 6 35 6 35 9 -30 c13
-48 16 -49 34 -14 l16 34 6 -40 c3 -22 7 -32 8 -22 1 23 31 80 38 74 3 -3 0
-22 -7 -42 -15 -47 -7 -55 16 -16 10 17 24 33 32 36 12 4 11 0 -2 -19 -9 -14
-16 -33 -16 -43 1 -17 2 -16 15 1 8 11 15 16 15 11 0 -4 9 0 20 10 11 10 20
13 20 8 0 -6 -7 -16 -15 -23 -9 -7 -14 -19 -11 -26 3 -7 0 -15 -7 -17 -7 -2
-9 -7 -6 -11 7 -7 19 3 51 43 22 26 38 27 38 4 0 -15 2 -16 10 -3 5 9 5 17 -1
21 -5 3 -7 13 -3 22 3 9 10 15 14 12 5 -3 12 1 17 8 10 16 54 47 67 47 6 0 -7
-18 -29 -40 -48 -49 -40 -64 12 -21 36 30 63 40 63 23 0 -4 -5 -13 -11 -19
-13 -13 38 -33 85 -33 32 0 135 -34 145 -47 3 -5 21 -24 40 -45 43 -47 33 -68
-16 -31 -20 16 -34 23 -32 18 42 -102 43 -105 28 -152 -16 -53 -44 -74 -34
-26 15 70 13 75 -11 26 -37 -77 -71 -97 -161 -98 -71 0 -72 0 -50 -18 12 -9
31 -16 43 -14 11 2 26 -2 32 -10 22 -23 92 -14 92 13 0 8 7 14 15 14 21 0 61
45 88 100 14 29 23 39 25 28 4 -23 -32 -92 -75 -138 -42 -47 -96 -66 -140 -49
-15 7 -46 15 -68 20 -103 21 -126 27 -152 44 -15 10 -35 26 -43 36 -28 33 -49
54 -63 66 -19 15 -32 102 -18 116 12 12 18 0 24 -48 2 -18 5 -8 6 23 0 29 -3
51 -8 48 -5 -3 -12 2 -15 11 -13 33 -28 -5 -28 -69 l0 -63 -16 49 c-13 38 -14
50 -4 54 6 2 12 19 12 39 0 26 -5 36 -20 40 -11 3 -20 12 -20 19 0 20 -27 17
-50 -6 -11 -11 -24 -20 -30 -20 -5 0 -10 -9 -10 -20 0 -12 -5 -17 -13 -14 -7
2 -20 -3 -29 -13 -18 -21 -34 -108 -18 -98 5 3 10 22 10 41 0 19 5 34 10 34 6
0 10 -24 10 -53 0 -43 -4 -57 -22 -73 -13 -11 -34 -34 -48 -50 -50 -60 -96
-80 -203 -90 -21 -1 -45 -8 -52 -14 -23 -19 -91 -14 -128 9 -36 22 -74 73 -96
129 -23 55 -5 46 25 -13 35 -68 61 -96 73 -76 5 8 14 10 21 6 9 -6 9 -9 0 -15
-19 -12 27 -33 59 -27 64 14 88 21 116 39 l30 19 -42 -6 c-50 -8 -54 -2 -15
20 l27 16 -26 -5 c-65 -14 -145 19 -162 67 -2 6 -7 9 -10 6 -14 -12 44 -79 76
-88 22 -6 26 -9 11 -10 -32 -1 -82 28 -100 57 l-15 27 6 -37 c8 -52 -16 -42
-37 16 -16 42 -15 52 8 150 l7 29 -31 -22 c-40 -28 -41 -12 -2 44 23 34 42 48
85 64 31 12 66 21 78 21 12 0 39 5 60 11 32 9 36 13 26 25 -6 8 -10 17 -7 20
8 8 61 -16 85 -38 41 -38 37 -9 -4 32 -25 25 -35 40 -26 40 9 0 31 -16 49 -36z
m-306 -28 c-14 -14 -22 -2 -14 18 5 14 9 15 15 4 4 -7 4 -17 -1 -22z m40 24
c0 -5 -4 -10 -10 -10 -5 0 -10 5 -10 10 0 6 5 10 10 10 6 0 10 -4 10 -10z
m1125 0 c-3 -5 1 -10 9 -10 9 0 16 -7 16 -15 0 -13 -6 -11 -30 7 -36 26 -36
28 -9 28 11 0 17 -4 14 -10z m-1245 -254 c0 -17 -28 16 -34 40 -11 42 6 49 20
8 8 -22 14 -43 14 -48z m624 50 c-4 -11 -12 -34 -19 -51 -12 -30 -12 -29 -16
26 -4 53 -3 55 19 51 18 -4 21 -9 16 -26z m746 22 c0 -20 -24 -78 -32 -78 -11
0 -10 28 2 35 6 3 10 17 10 31 0 13 5 24 10 24 6 0 10 -5 10 -12z m-680 -148
c0 -6 11 -22 24 -35 28 -28 44 -55 80 -141 49 -116 44 -199 -15 -249 -41 -34
-65 -33 -72 5 -4 16 -4 38 -1 47 3 10 -1 7 -9 -6 -12 -20 -15 -21 -20 -6 -4 9
-8 89 -9 178 l-2 162 -5 -173 c-4 -108 -10 -175 -17 -180 -6 -4 -16 -17 -23
-29 -15 -30 -32 -29 -70 2 -43 37 -56 84 -42 153 17 89 65 196 108 241 36 38
73 54 73 31z m136 -115 c12 -33 27 -74 34 -91 13 -30 7 -84 -8 -84 -4 0 -13
29 -19 64 -6 36 -18 79 -27 97 -9 18 -16 42 -16 55 0 13 -4 26 -10 29 -5 3
-10 11 -10 17 0 26 36 -31 56 -87z m-310 -45 c-14 -45 -26 -90 -26 -101 0 -11
-4 -17 -10 -14 -17 10 -11 62 14 127 13 35 27 72 32 83 6 17 8 18 11 3 2 -9
-7 -53 -21 -98z m649 60 c-3 -5 -18 -10 -33 -9 l-27 1 25 8 c35 11 42 11 35 0z
m-952 -7 c-7 -2 -21 -2 -30 0 -10 3 -4 5 12 5 17 0 24 -2 18 -5z m267 3 c0 -3
-4 -8 -10 -11 -5 -3 -10 -1 -10 4 0 6 5 11 10 11 6 0 10 -2 10 -4z m-535 -64
c-8 -8 -25 17 -25 38 0 9 6 6 16 -8 9 -13 13 -26 9 -30z m1459 24 c-3 -9 -10
-16 -15 -16 -6 0 -5 9 1 21 13 24 24 20 14 -5z m-1043 -6 c-22 -19 -41 -26
-41 -15 0 5 51 34 60 34 3 0 -6 -9 -19 -19z m-86 -40 c-55 -28 -164 -64 -172
-57 -9 9 97 57 127 57 14 0 32 5 40 10 8 5 22 10 30 10 8 0 -4 -9 -25 -20z
m1095 -26 c-11 -22 -19 -31 -20 -21 0 18 30 71 36 64 2 -2 -5 -21 -16 -43z
m-400 17 c0 -11 -4 -23 -10 -26 -6 -4 -10 5 -10 19 0 14 5 26 10 26 6 0 10 -9
10 -19z m147 3 c21 -4 54 -15 74 -25 20 -10 40 -15 44 -11 5 4 5 1 1 -5 -4 -7
-13 -13 -20 -13 -29 0 -146 43 -158 58 -11 13 -11 15 4 9 9 -3 34 -9 55 -13z
m-1137 -38 c0 -6 -7 -2 -15 8 -8 11 -15 25 -15 30 0 6 7 2 15 -8 8 -11 15 -25
15 -30z m400 28 c0 -10 5 -14 15 -10 8 3 21 8 29 12 15 6 26 -43 25 -116 l0
-45 -20 38 c-11 22 -23 37 -26 34 -2 -3 1 -15 7 -27 6 -11 10 -26 7 -33 -2 -7
-11 4 -21 24 -16 35 -51 79 -62 79 -3 0 4 -12 16 -27 25 -32 50 -88 50 -112 0
-9 -12 7 -26 34 -29 58 -66 95 -96 95 -21 0 -21 0 2 20 13 11 34 20 47 20 24
0 80 -32 95 -55 9 -12 10 -2 2 19 -3 9 -11 16 -17 16 -13 0 -47 30 -47 42 0 4
5 8 10 8 6 0 10 -7 10 -16z m590 -24 c31 16 68 12 80 -10 8 -15 8 -20 -1 -20
-24 0 -71 -44 -94 -88 -13 -26 -24 -39 -25 -30 0 9 9 34 21 55 l21 38 -27 -30
-26 -30 7 28 c9 39 -8 33 -28 -11 l-17 -37 5 70 c8 98 9 100 40 76 20 -15 31
-18 44 -11z m329 -67 c-30 -38 -85 -83 -102 -83 -10 0 -15 5 -12 10 3 6 12 10
19 10 8 0 31 18 52 39 40 40 68 55 43 24z m-1247 -12 c7 11 9 11 6 1 -5 -17
-23 -17 -24 0 -1 9 1 8 4 -1 3 -12 5 -12 14 0z m294 -47 c24 -50 13 -49 -18 1
-16 27 -21 42 -12 38 8 -3 21 -21 30 -39z m665 13 c-11 -18 -25 -44 -31 -58
-9 -22 -10 -21 -5 11 3 19 15 44 27 57 30 32 33 29 9 -10z m-157 -40 c-7 -35
-31 -63 -68 -82 -14 -8 -26 -12 -26 -11 0 2 16 20 35 41 20 21 39 50 42 66 3
16 10 26 15 23 5 -3 6 -20 2 -37z m-358 11 c3 -13 22 -42 40 -65 42 -51 43
-60 3 -31 -29 21 -69 84 -69 108 0 19 19 10 26 -12z m178 -119 c-3 -5 -10 -7
-15 -3 -5 3 -7 10 -3 15 3 5 10 7 15 3 5 -3 7 -10 3 -15z m-219 -51 c-4 -13
-12 -27 -18 -33 -7 -7 -8 -4 -3 8 3 10 6 25 6 33 0 8 5 14 11 14 6 0 8 -9 4
-22z m444 -28 c1 -13 0 -13 -9 0 -5 8 -9 24 -9 35 l0 20 9 -20 c5 -11 9 -27 9
-35z m-398 -77 c-18 -32 -25 13 -10 60 l14 42 3 -42 c2 -24 -1 -51 -7 -60z"/>
<path d="M2120 3008 c0 -9 5 -20 10 -23 13 -8 13 5 0 25 -8 13 -10 13 -10 -2z"/>
<path d="M2845 2748 c-27 -27 -35 -30 -80 -25 l-50 4 33 -15 c32 -15 36 -15
75 6 23 12 48 31 55 42 17 28 2 23 -33 -12z"/>
<path d="M1865 2740 c10 -11 23 -20 28 -20 6 0 1 9 -11 20 -12 11 -24 20 -28
20 -4 0 1 -9 11 -20z"/>
<path d="M2888 2730 c-23 -40 -82 -57 -146 -42 -61 14 -64 9 -7 -13 40 -15 53
-15 91 -5 43 12 90 58 82 80 -2 5 -10 -4 -20 -20z"/>
<path d="M2162 2715 c-25 -29 -29 -43 -6 -25 15 13 38 50 31 50 -2 0 -13 -11
-25 -25z"/>
<path d="M1915 2710 c3 -5 17 -10 30 -10 13 0 27 5 30 10 4 6 -8 10 -30 10
-22 0 -34 -4 -30 -10z"/>
<path d="M2590 2680 c36 -31 61 -41 40 -15 -7 8 -19 15 -26 15 -8 0 -14 4 -14
9 0 5 -8 12 -17 15 -10 3 -2 -8 17 -24z"/>
<path d="M2106 2674 c-22 -21 -20 -27 4 -14 11 6 20 15 20 20 0 14 -6 12 -24
-6z"/>
<path d="M2280 2341 c0 -5 7 -14 15 -21 16 -14 18 -10 9 14 -6 17 -24 22 -24
7z"/>
<path d="M2430 2335 c0 -8 5 -15 10 -15 6 0 10 7 10 15 0 8 -4 15 -10 15 -5 0
-10 -7 -10 -15z"/>
<path d="M2679 2463 c-13 -16 -12 -17 4 -4 16 13 21 21 13 21 -2 0 -10 -8 -17
-17z"/>
<path d="M1602 3311 c-7 -21 -12 -52 -12 -69 0 -17 -4 -32 -9 -34 -11 -4 5
-143 19 -165 9 -14 10 -2 6 52 l-5 70 19 -65 19 -65 -5 55 c-4 43 -3 52 6 40
10 -13 11 -12 6 3 -3 10 -6 23 -6 28 0 6 -4 8 -8 5 -4 -2 -7 38 -6 90 1 52 -2
94 -6 94 -4 0 -12 -17 -18 -39z"/>
<path d="M1656 3337 c-12 -26 -2 -116 18 -157 10 -23 14 -26 10 -10 -3 14 -9
61 -13 105 -5 54 -10 74 -15 62z"/>
<path d="M3060 3300 c-1 -52 -9 -102 -26 -160 -4 -16 -3 -21 3 -15 25 26 47
156 34 200 -8 27 -9 24 -11 -25z"/>
<path d="M3108 3302 c2 -26 0 -64 -6 -84 -6 -22 -6 -38 -1 -40 6 -2 5 -27 -2
-62 -10 -58 -5 -93 6 -40 4 16 10 38 15 49 8 19 9 19 9 -3 1 -13 -4 -43 -10
-67 -16 -63 -5 -79 14 -20 22 71 29 185 11 178 -11 -4 -14 7 -14 50 0 57 -7
87 -20 87 -4 0 -5 -22 -2 -48z"/>
<path d="M1696 3306 c-4 -18 -2 -44 3 -57 8 -20 10 -13 10 34 1 64 -4 73 -13
23z"/>
<path d="M3022 3304 c-1 -23 -4 -63 -7 -90 l-5 -49 11 40 c5 22 8 63 6 90 -3
47 -3 47 -5 9z"/>
<path d="M1520 3220 c0 -5 5 -10 11 -10 5 0 7 5 4 10 -3 6 -8 10 -11 10 -2 0
-4 -4 -4 -10z"/>
<path d="M3305 3220 c-3 -5 -1 -10 4 -10 6 0 11 5 11 10 0 6 -2 10 -4 10 -3 0
-8 -4 -11 -10z"/>
<path d="M1710 3190 c0 -11 4 -20 9 -20 5 0 7 9 4 20 -3 11 -7 20 -9 20 -2 0
-4 -9 -4 -20z"/>
<path d="M480 3180 c0 -5 5 -10 10 -10 6 0 10 5 10 10 0 6 -4 10 -10 10 -5 0
-10 -4 -10 -10z"/>
<path d="M3170 3163 c-1 -16 -30 -189 -39 -228 -22 -96 -24 -110 -14 -100 27
26 54 135 60 233 3 56 3 102 -1 102 -3 0 -6 -3 -6 -7z"/>
<path d="M3427 3153 c-4 -6 0 -13 8 -17 8 -3 17 0 21 6 4 6 3 8 -4 4 -5 -3
-12 -1 -14 6 -3 8 -6 9 -11 1z"/>
<path d="M3076 3135 c-3 -9 -6 -22 -5 -28 0 -7 5 -1 10 12 5 13 8 26 5 28 -2
2 -6 -3 -10 -12z"/>
<path d="M1551 3074 c-1 -39 3 -84 8 -100 5 -16 15 -50 22 -76 7 -26 21 -57
32 -70 21 -26 22 -32 -7 82 -9 36 -25 103 -35 150 l-19 85 -1 -71z"/>
<path d="M1696 3127 c3 -10 9 -15 12 -12 3 3 0 11 -7 18 -10 9 -11 8 -5 -6z"/>
<path d="M3331 3124 c0 -11 3 -14 6 -6 3 7 2 16 -1 19 -3 4 -6 -2 -5 -13z"/>
<path d="M720 3114 c0 -8 5 -12 10 -9 6 3 10 10 10 16 0 5 -4 9 -10 9 -5 0
-10 -7 -10 -16z"/>
<path d="M890 3115 c-1 -36 -16 -48 -60 -47 -46 2 -46 -9 1 -28 30 -13 31 -14
25 -62 l-7 -50 22 21 c29 26 37 26 66 -1 26 -24 29 -15 14 40 -9 32 -8 34 27
55 l37 22 -46 3 c-42 3 -49 7 -63 35 -12 24 -16 27 -16 12z"/>
<path d="M3390 3121 c0 -5 7 -11 15 -15 9 -3 15 0 15 9 0 8 -7 15 -15 15 -8 0
-15 -4 -15 -9z"/>
<path d="M1650 3105 c0 -5 5 -17 10 -25 5 -8 10 -10 10 -5 0 6 -5 17 -10 25
-5 8 -10 11 -10 5z"/>
<path d="M3779 3087 c-10 -22 -19 -27 -48 -27 l-36 -1 28 -20 c28 -22 34 -47
17 -80 -13 -23 2 -26 20 -4 18 22 48 18 76 -10 20 -20 24 -21 21 -8 -3 10 -8
34 -11 55 -6 33 -4 37 24 49 42 19 37 33 -10 25 -36 -6 -41 -4 -54 21 l-14 28
-13 -28z"/>
<path d="M1610 3011 c0 -6 4 -13 10 -16 6 -3 7 1 4 9 -7 18 -14 21 -14 7z"/>
<path d="M461 2994 c0 -11 3 -14 6 -6 3 7 2 16 -1 19 -3 4 -6 -2 -5 -13z"/>
<path d="M416 2917 c3 -10 9 -15 12 -12 3 3 0 11 -7 18 -10 9 -11 8 -5 -6z"/>
<path d="M811 2874 c0 -11 3 -14 6 -6 3 7 2 16 -1 19 -3 4 -6 -2 -5 -13z"/>
<path d="M3760 2730 c8 -5 20 -10 25 -10 6 0 3 5 -5 10 -8 5 -19 10 -25 10 -5
0 -3 -5 5 -10z"/>
<path d="M4110 2709 c0 -5 5 -7 10 -4 6 3 10 8 10 11 0 2 -4 4 -10 4 -5 0 -10
-5 -10 -11z"/>
<path d="M4430 2690 c0 -6 7 -10 15 -10 8 0 15 2 15 4 0 2 -7 6 -15 10 -8 3
-15 1 -15 -4z"/>
<path d="M504 2620 c-32 -13 -73 -67 -80 -108 -4 -20 -11 -40 -17 -43 -6 -4
-2 -24 12 -51 11 -24 21 -51 21 -59 0 -8 11 -27 25 -42 36 -42 88 -42 126 1
16 17 31 44 34 59 3 16 11 39 18 53 10 20 11 30 0 50 -6 14 -15 37 -18 52 -7
35 -62 98 -84 97 -9 0 -25 -4 -37 -9z m59 -89 c6 -28 0 -144 -8 -168 -2 -7
-16 -13 -29 -13 -21 0 -26 6 -31 38 -3 20 -8 50 -10 66 -3 16 0 46 5 67 9 34
15 39 39 39 23 0 30 -5 34 -29z"/>
<path d="M723 2622 c-45 -3 -53 -6 -53 -23 0 -11 7 -22 15 -25 18 -7 21 -99 5
-109 -7 -4 -8 -11 -1 -18 5 -7 11 -32 12 -55 3 -33 -1 -46 -14 -53 -9 -6 -17
-19 -17 -29 0 -18 7 -20 95 -20 l95 0 0 61 c0 52 -2 60 -17 57 -11 -2 -19 -14
-21 -31 -3 -22 -8 -27 -32 -27 l-28 0 0 107 c0 61 4 111 10 114 5 3 8 17 6 30
-3 22 -7 24 -55 21z"/>
<path d="M896 2608 c-2 -10 2 -25 10 -32 20 -20 19 -106 -1 -106 -8 0 -15 -5
-15 -10 0 -6 7 -13 15 -16 17 -7 22 -94 5 -94 -5 0 -10 -13 -10 -30 l0 -30 74
0 c72 0 75 1 105 35 17 20 33 48 37 63 3 15 10 37 15 50 5 13 5 30 0 40 -5 9
-17 36 -26 59 -28 66 -49 80 -132 85 -63 3 -72 1 -77 -14z m134 -48 c21 0 30
-153 11 -189 -7 -13 -21 -21 -36 -21 -25 0 -25 0 -25 103 0 106 4 122 28 112
7 -3 17 -5 22 -5z"/>
<path d="M3981 2599 c-50 -50 -40 -91 42 -170 39 -39 48 -73 21 -83 -26 -10
-32 -7 -43 24 -15 45 -41 39 -41 -9 0 -22 -2 -46 -5 -53 -5 -11 7 -15 54 -16
55 -2 61 1 85 29 48 57 34 102 -57 177 -19 15 -27 31 -25 45 4 29 30 28 43 0
5 -13 18 -23 27 -23 15 0 18 9 18 55 0 54 -1 55 -21 44 -15 -8 -24 -8 -32 0
-18 18 -34 13 -66 -20z"/>
<path d="M3440 2605 c0 -9 7 -26 15 -39 9 -13 20 -46 25 -72 15 -86 53 -204
65 -204 13 0 35 64 35 104 0 48 16 27 30 -39 7 -36 18 -65 24 -65 18 0 44 102
61 243 4 26 10 47 16 47 5 0 9 9 9 20 0 16 -7 20 -36 20 -34 0 -35 -1 -29 -29
3 -16 1 -49 -6 -73 -10 -39 -12 -41 -20 -21 -4 13 -11 45 -15 73 -5 38 -11 50
-24 50 -14 0 -19 -12 -24 -57 -4 -31 -9 -68 -13 -82 -5 -22 -8 -18 -19 25 -7
27 -13 64 -14 82 0 31 -2 32 -40 32 -29 0 -40 -4 -40 -15z"/>
<path d="M3750 2595 c0 -14 5 -25 11 -25 7 0 9 -16 5 -47 -3 -27 -6 -78 -5
-115 0 -36 -4 -69 -10 -73 -6 -3 -11 -15 -11 -26 0 -17 8 -19 93 -19 l92 0 -3
55 c-4 59 -16 70 -34 30 -7 -16 -19 -25 -35 -25 -20 0 -23 5 -23 41 0 36 2 40
23 37 19 -3 22 1 22 32 0 30 -3 35 -22 33 -21 -3 -23 2 -23 38 0 36 2 40 23
37 14 -2 23 -11 25 -25 2 -15 10 -23 23 -23 16 0 19 7 17 50 l-2 50 -83 0
c-82 0 -83 0 -83 -25z"/>
<path d="M4140 2565 c0 -41 4 -55 14 -55 8 0 17 14 21 30 4 17 13 30 21 30 17
0 20 -95 4 -105 -6 -4 -7 -12 -3 -18 10 -16 3 -101 -8 -105 -5 -2 -9 -15 -9
-28 0 -23 3 -24 56 -24 l56 0 -7 28 c-4 15 -10 54 -12 87 -2 33 -6 84 -9 113
-3 28 -2 52 3 52 15 0 33 -23 33 -42 0 -12 7 -18 21 -18 19 0 21 4 15 31 -3
17 -6 42 -6 55 0 24 -2 24 -95 24 l-95 0 0 -55z"/>
<path d="M251 2504 c0 -11 3 -14 6 -6 3 7 2 16 -1 19 -3 4 -6 -2 -5 -13z"/>
<path d="M1414 2425 l-18 -55 -63 0 c-35 0 -63 -3 -63 -7 0 -5 21 -26 45 -47
25 -22 45 -45 45 -52 0 -7 -9 -33 -20 -58 -10 -25 -16 -46 -11 -46 4 0 29 14
54 31 l47 31 61 -36 c34 -20 59 -31 56 -24 -3 7 -14 36 -25 64 l-21 51 37 29
c86 69 85 63 6 64 l-70 0 -18 55 c-9 30 -19 55 -21 55 -2 0 -12 -25 -21 -55z"/>
<path d="M3245 2443 c-27 -67 -28 -68 -84 -65 -28 2 -51 -1 -51 -6 0 -5 20
-28 45 -50 l45 -40 -20 -57 c-11 -32 -20 -60 -20 -62 0 -10 22 1 63 32 l46 35
47 -30 c27 -16 51 -30 56 -30 4 0 -2 21 -12 46 -11 25 -20 51 -20 57 0 7 21
31 47 54 l47 43 -62 0 c-58 0 -62 2 -77 30 -8 16 -15 38 -15 49 0 36 -20 33
-35 -6z"/>
<path d="M205 2280 c3 -5 8 -10 11 -10 2 0 4 5 4 10 0 6 -5 10 -11 10 -5 0 -7
-4 -4 -10z"/>
<path d="M410 2240 c0 -5 5 -10 10 -10 6 0 10 5 10 10 0 6 -4 10 -10 10 -5 0
-10 -4 -10 -10z"/>
<path d="M3850 2236 c0 -8 4 -17 8 -20 4 -2 8 4 8 15 0 10 -4 19 -8 19 -4 0
-8 -6 -8 -14z"/>
<path d="M4307 2243 c-4 -3 -7 -11 -7 -17 0 -6 5 -5 12 2 6 6 9 14 7 17 -3 3
-9 2 -12 -2z"/>
<path d="M390 2200 c0 -5 7 -10 16 -10 8 0 12 5 9 10 -3 6 -10 10 -16 10 -5 0
-9 -4 -9 -10z"/>
<path d="M1981 2153 c-1 -18 4 -33 9 -33 12 0 12 17 0 45 -7 17 -9 15 -9 -12z"/>
<path d="M2737 2156 c-4 -10 -5 -21 -2 -24 9 -9 17 6 13 25 -3 17 -4 17 -11
-1z"/>
<path d="M1010 2155 c0 -2 14 -11 30 -20 23 -12 46 -14 95 -9 36 4 65 10 65
14 0 4 -28 10 -61 14 -73 7 -129 8 -129 1z"/>
<path d="M3520 2145 c0 -10 11 -15 35 -15 26 0 33 3 29 15 -4 9 -19 15 -35 15
-19 0 -29 -5 -29 -15z"/>
<path d="M2740 2083 c0 -13 5 -23 10 -23 13 0 13 11 0 30 -8 12 -10 11 -10 -7z"/>
<path d="M1981 2074 c0 -11 3 -14 6 -6 3 7 2 16 -1 19 -3 4 -6 -2 -5 -13z"/>
<path d="M2695 2067 c-9 -21 2 -67 15 -67 12 0 12 37 0 65 -7 18 -8 19 -15 2z"/>
<path d="M2017 2063 c-10 -9 -8 -51 2 -57 10 -7 21 17 21 45 0 19 -11 25 -23
12z"/>
<path d="M2069 2029 c-11 -34 -10 -42 2 -49 17 -11 27 10 28 58 1 45 -16 40
-30 -9z"/>
<path d="M2638 2064 c-3 -5 -3 -28 0 -52 4 -44 24 -54 30 -14 4 23 -22 80 -30
66z"/>
<path d="M2140 2031 c-16 -31 -9 -75 13 -79 14 -3 17 4 17 35 0 52 -14 73 -30
44z"/>
<path d="M2490 1990 c0 -53 2 -60 20 -60 17 0 20 7 20 48 0 44 -12 72 -32 72
-4 0 -8 -27 -8 -60z"/>
<path d="M2570 1995 c0 -59 13 -71 32 -30 8 18 8 32 -2 55 -19 45 -30 36 -30
-25z"/>
<path d="M2206 2024 c-3 -9 -6 -33 -6 -55 0 -35 2 -39 26 -39 22 0 25 3 20 23
-3 12 -6 37 -6 55 0 34 -23 45 -34 16z"/>
<path d="M2292 2024 c-15 -10 -22 -25 -22 -48 0 -37 15 -56 45 -56 33 0 40 15
37 69 -4 56 -18 64 -60 35z"/>
<path d="M2385 2007 c-4 -19 -5 -45 -3 -58 2 -20 9 -24 38 -24 l35 0 -1 47 c0
55 0 54 -36 63 -24 6 -27 4 -33 -28z"/>
<path d="M1235 1990 c-3 -5 -1 -10 4 -10 6 0 11 5 11 10 0 6 -2 10 -4 10 -3 0
-8 -4 -11 -10z"/>
<path d="M3995 1990 c3 -5 8 -10 11 -10 2 0 4 5 4 10 0 6 -5 10 -11 10 -5 0
-7 -4 -4 -10z"/>
<path d="M215 1950 c-4 -6 4 -27 17 -48 21 -34 23 -50 26 -208 l4 -171 -26
-30 c-25 -29 -25 -32 -9 -48 22 -22 24 -46 24 -273 -1 -177 -2 -197 -21 -227
-27 -44 -18 -66 23 -58 18 3 39 12 47 19 11 9 29 11 54 7 27 -4 41 -2 47 8 12
20 11 25 -7 44 -26 25 -34 79 -34 231 0 108 3 144 14 153 35 29 66 -28 66
-121 0 -64 24 -231 39 -270 12 -33 49 -68 72 -68 17 0 79 63 79 80 0 20 -13
40 -26 40 -24 0 -34 36 -40 142 -7 131 -21 206 -45 240 -24 33 -24 43 1 61 40
28 65 105 65 202 0 116 -14 161 -72 225 l-46 51 -61 -2 c-34 -2 -67 -7 -74
-13 -9 -6 -16 -6 -20 0 -12 17 -91 44 -97 34z m75 -144 c0 -3 -4 -8 -10 -11
-5 -3 -10 -1 -10 4 0 6 5 11 10 11 6 0 10 -2 10 -4z m151 -22 c22 -24 24 -33
24 -129 0 -95 -2 -106 -23 -128 -26 -28 -54 -38 -71 -28 -12 8 -9 280 3 300
12 19 41 12 67 -15z"/>
<path d="M400 1560 c0 -5 5 -10 11 -10 5 0 7 5 4 10 -3 6 -8 10 -11 10 -2 0
-4 -4 -4 -10z"/>
<path d="M4281 1932 c-7 -6 -40 -8 -73 -7 -69 4 -82 -9 -49 -51 19 -25 21 -39
21 -193 0 -163 -1 -167 -25 -195 -23 -26 -24 -31 -10 -46 23 -26 33 -101 34
-267 2 -143 1 -152 -19 -163 -13 -7 -20 -21 -20 -39 0 -23 6 -30 26 -35 15 -4
32 -2 40 5 10 8 18 8 27 1 6 -6 29 -13 50 -17 34 -7 37 -6 37 16 0 13 -7 33
-15 43 -21 28 -22 348 -1 365 11 9 18 6 35 -15 12 -15 21 -36 21 -48 1 -11 7
-91 13 -177 14 -170 32 -226 79 -243 37 -13 73 0 87 31 12 25 10 29 -19 53
l-32 26 -8 165 c-10 195 -15 221 -46 250 l-24 22 38 41 c49 53 68 132 59 244
-9 107 -23 148 -66 195 -34 36 -44 41 -92 44 -30 2 -60 0 -68 -5z m82 -137
c25 -19 37 -77 31 -153 -8 -101 -35 -152 -81 -152 l-24 0 5 149 c2 82 7 154
11 160 9 15 36 13 58 -4z m127 -55 c0 -5 -2 -10 -4 -10 -3 0 -8 5 -11 10 -3 6
-1 10 4 10 6 0 11 -4 11 -10z m-160 -290 c0 -5 -2 -10 -4 -10 -3 0 -8 5 -11
10 -3 6 -1 10 4 10 6 0 11 -4 11 -10z m-70 -364 c0 -3 -4 -8 -10 -11 -5 -3
-10 -1 -10 4 0 6 5 11 10 11 6 0 10 -2 10 -4z m187 -58 c-3 -8 -6 -5 -6 6 -1
11 2 17 5 13 3 -3 4 -12 1 -19z"/>
<path d="M1908 1906 c-20 -10 -44 -12 -99 -6 -67 7 -74 6 -89 -13 l-17 -21
-12 22 c-16 29 -61 31 -61 2 0 -11 4 -20 9 -20 19 0 24 -47 24 -194 -1 -135
-3 -150 -21 -169 l-20 -20 21 -29 c16 -21 18 -31 9 -40 -8 -8 -8 -17 0 -31 6
-13 10 -76 9 -161 -2 -110 -5 -145 -19 -168 -13 -22 -14 -30 -4 -40 10 -10 18
-10 40 3 18 10 35 13 47 8 60 -23 105 3 70 41 -23 25 -28 81 -18 215 8 105 9
110 31 113 31 5 46 -10 61 -58 6 -22 16 -40 20 -40 11 0 5 294 -6 297 -6 2
-18 -15 -28 -37 -16 -34 -23 -41 -44 -38 l-26 3 -3 133 c-2 121 -1 132 15 133
62 4 95 -21 114 -87 8 -24 19 -44 26 -44 10 0 11 28 6 128 -3 70 -6 128 -7
129 -1 1 -14 -4 -28 -11z m-158 -240 c0 -3 -4 -8 -10 -11 -5 -3 -10 -1 -10 4
0 6 5 11 10 11 6 0 10 -2 10 -4z m-23 -202 c-3 -3 -12 -4 -19 -1 -8 3 -5 6 6
6 11 1 17 -2 13 -5z"/>
<path d="M2826 1908 c-15 -8 -15 -11 4 -35 18 -23 20 -40 20 -193 0 -138 -3
-170 -15 -180 -14 -12 -14 -15 0 -30 12 -13 15 -49 15 -194 0 -164 -1 -179
-21 -205 -12 -16 -19 -34 -15 -39 6 -11 43 -5 62 10 7 5 16 2 24 -7 16 -19 59
-19 66 0 3 8 -4 26 -15 41 -19 25 -21 39 -20 183 0 86 4 165 8 176 7 18 10 17
30 -15 11 -19 21 -43 21 -52 0 -9 7 -43 15 -75 26 -98 48 -207 49 -238 1 -24
6 -31 25 -33 13 -2 28 1 34 7 8 8 16 6 28 -5 24 -21 55 -14 50 11 -2 11 -6
100 -8 197 -4 148 -2 183 11 209 20 40 20 47 1 65 -12 12 -15 46 -15 172 0
140 2 160 20 187 27 41 25 45 -14 45 -23 0 -36 -6 -41 -17 -6 -17 -7 -17 -16
0 -10 18 -54 24 -64 8 -3 -5 3 -17 12 -27 16 -15 18 -42 21 -207 3 -125 0
-193 -7 -200 -12 -12 -11 -16 -46 128 -14 61 -30 125 -36 143 -24 83 -28 109
-23 140 6 29 4 32 -20 32 -14 0 -35 -6 -46 -12 -17 -11 -25 -10 -49 3 -19 11
-33 13 -45 7z m124 -347 c0 -5 3 -22 6 -38 4 -22 2 -32 -10 -36 -13 -5 -16 2
-16 38 0 25 5 45 10 45 6 0 10 -4 10 -9z m120 -265 c0 -2 -7 -6 -15 -10 -8 -3
-15 -1 -15 4 0 6 7 10 15 10 8 0 15 -2 15 -4z"/>
<path d="M4040 1908 c-19 -6 -81 -8 -137 -6 -108 5 -116 1 -88 -36 12 -16 15
-55 15 -186 0 -156 -1 -166 -20 -178 l-21 -13 21 -28 c18 -27 20 -44 20 -214
0 -155 -3 -190 -17 -215 -24 -42 -12 -66 30 -58 31 6 203 -15 240 -29 15 -7
17 2 17 83 0 50 5 114 11 142 18 85 -13 79 -45 -10 -19 -54 -46 -80 -83 -80
-35 0 -43 30 -43 163 0 130 8 155 44 141 19 -7 46 -54 46 -79 0 -9 6 -15 13
-12 6 2 12 9 11 15 -1 7 -2 73 -2 147 -1 74 -5 135 -9 135 -5 0 -17 -17 -28
-38 -15 -27 -26 -37 -45 -37 l-25 0 -3 115 c-4 149 -1 160 42 160 40 0 61 -21
82 -83 9 -26 20 -49 25 -53 5 -3 9 52 9 130 0 148 3 142 -60 124z m-170 -28
c0 -5 -5 -10 -11 -10 -5 0 -7 5 -4 10 3 6 8 10 11 10 2 0 4 -4 4 -10z"/>
<path d="M650 1897 c0 -7 7 -22 15 -33 11 -15 14 -54 15 -178 0 -136 -2 -162
-17 -178 -16 -18 -16 -21 1 -53 16 -29 17 -37 6 -51 -11 -12 -11 -17 -1 -23
10 -6 12 -49 9 -179 -3 -145 -6 -173 -20 -189 -10 -11 -18 -28 -18 -38 0 -15
6 -17 43 -10 23 4 67 9 97 12 30 2 61 8 70 13 8 4 35 4 60 0 25 -5 47 -6 49
-4 10 9 12 274 2 274 -5 0 -17 -25 -27 -55 -20 -66 -65 -115 -105 -115 -15 0
-30 3 -32 8 -10 16 -18 160 -11 218 5 51 10 63 26 67 36 10 47 -2 72 -77 14
-42 21 2 21 135 0 143 -9 172 -35 109 -16 -40 -31 -49 -57 -39 -22 8 -23 13
-23 132 0 82 4 127 12 135 35 35 104 -13 126 -87 8 -24 19 -41 27 -41 13 0 15
21 13 126 -1 87 -5 127 -13 131 -7 2 -28 -5 -48 -16 -24 -13 -37 -16 -40 -8
-2 7 -30 11 -75 11 -40 0 -72 4 -72 8 0 4 -16 8 -35 8 -22 0 -35 -5 -35 -13z
m190 -57 c0 -5 -2 -10 -4 -10 -3 0 -8 5 -11 10 -3 6 -1 10 4 10 6 0 11 -4 11
-10z m-65 -360 c3 -5 1 -10 -4 -10 -6 0 -11 5 -11 10 0 6 2 10 4 10 3 0 8 -4
11 -10z"/>
<path d="M1010 1894 c0 -9 9 -27 20 -41 18 -23 20 -41 20 -179 0 -141 -2 -156
-20 -171 -18 -16 -19 -18 -2 -36 14 -16 17 -46 21 -199 3 -171 2 -181 -18
-209 -11 -15 -21 -38 -21 -50 0 -19 4 -21 38 -15 20 4 71 9 112 12 41 4 87 12
102 20 72 37 109 112 120 244 12 141 18 178 34 191 13 10 11 16 -8 36 -19 20
-23 39 -28 126 -7 119 -31 183 -87 234 -43 40 -106 62 -126 45 -16 -13 -95
-13 -103 0 -10 15 -54 9 -54 -8z m211 -117 c30 -23 37 -53 40 -172 1 -66 1
-124 -1 -130 -2 -5 1 -19 5 -29 5 -11 4 -78 -2 -149 -11 -139 -19 -158 -75
-171 l-28 -6 0 145 c0 110 4 154 16 185 15 38 15 42 0 59 -13 14 -16 42 -16
149 0 130 0 132 23 132 12 0 29 -6 38 -13z"/>
<path d="M3250 1909 c-1 -62 -12 -239 -16 -253 -4 -12 -2 -17 6 -14 7 2 23 31
36 64 24 58 55 91 74 79 6 -4 10 -64 10 -136 0 -118 -2 -131 -21 -150 -21 -21
-21 -22 -3 -53 16 -26 19 -56 22 -191 4 -152 3 -161 -17 -179 -12 -11 -21 -30
-21 -43 0 -19 5 -23 29 -23 17 0 32 4 36 9 3 6 17 4 33 -5 15 -7 39 -14 55
-14 22 0 27 4 27 24 0 13 -7 29 -16 37 -13 11 -15 38 -12 188 2 133 7 181 18
198 13 20 12 24 -5 43 -15 17 -19 41 -22 148 -2 70 0 133 5 140 20 29 72 -29
72 -79 0 -20 26 -79 35 -79 3 0 5 63 5 140 0 154 -5 167 -56 139 -20 -10 -31
-10 -60 0 -24 9 -39 9 -47 2 -13 -10 -104 -8 -144 5 -13 3 -23 5 -23 3z m150
-353 c0 -3 -4 -8 -10 -11 -5 -3 -10 -1 -10 4 0 6 5 11 10 11 6 0 10 -2 10 -4z"/>
<path d="M3603 1894 c-3 -9 -1 -19 4 -23 26 -16 30 -52 26 -201 -4 -133 -7
-158 -23 -174 -17 -18 -18 -20 -2 -45 25 -38 32 -388 8 -397 -10 -4 -16 -18
-16 -36 0 -29 1 -29 53 -27 28 1 67 -1 85 -6 39 -9 42 6 11 59 -19 33 -21 48
-17 182 2 123 6 148 20 158 15 11 15 14 2 28 -15 14 -10 48 7 48 16 0 9 27
-12 46 -20 18 -21 26 -17 176 4 124 8 162 21 182 9 14 17 30 17 36 0 15 -42
12 -64 -5 -16 -12 -21 -12 -40 0 -27 20 -55 19 -63 -1z m80 -614 c-3 -11 -7
-20 -9 -20 -2 0 -4 9 -4 20 0 11 4 20 9 20 5 0 7 -9 4 -20z"/>
<path d="M1981 951 c-8 -15 -8 -22 1 -27 7 -4 10 -4 6 1 -4 4 -3 14 4 22 6 7
8 16 5 19 -3 3 -10 -3 -16 -15z"/>
<path d="M860 890 c0 -5 5 -10 11 -10 5 0 7 5 4 10 -3 6 -8 10 -11 10 -2 0 -4
-4 -4 -10z"/>
<path d="M780 880 c0 -5 7 -10 16 -10 8 0 12 5 9 10 -3 6 -10 10 -16 10 -5 0
-9 -4 -9 -10z"/>
</g>
</svg>
