<?xml version="1.0" standalone="no"?>
<!DOCTYPE svg PUBLIC "-//W3C//DTD SVG 20010904//EN"
 "http://www.w3.org/TR/2001/REC-SVG-20010904/DTD/svg10.dtd">
<svg version="1.0" xmlns="http://www.w3.org/2000/svg"
 width="473.000000pt" height="489.000000pt" viewBox="0 0 473.000000 489.000000"
 preserveAspectRatio="xMidYMid meet">

<g transform="translate(0.000000,489.000000) scale(0.100000,-0.100000)"
fill="#000000" stroke="none">
<path d="M2120 4535 c-30 -8 -98 -24 -150 -35 -139 -32 -234 -61 -246 -76 -6
-8 -13 -12 -16 -9 -15 15 -218 -82 -218 -105 0 -13 -2 -13 -9 -1 -7 11 -23 6
-82 -29 -41 -24 -94 -55 -119 -69 -45 -25 -129 -87 -225 -165 -167 -136 -370
-404 -500 -661 -108 -213 -160 -342 -201 -493 -22 -85 -20 -92 26 -92 29 0 40
4 40 15 0 8 4 23 9 33 6 9 19 49 31 87 41 136 165 410 238 524 91 144 146 223
173 249 16 15 29 31 29 35 0 22 84 128 117 148 21 13 65 48 98 79 34 30 77 67
95 81 180 138 499 295 670 330 30 6 73 16 95 21 22 6 64 12 93 15 38 4 67 14
103 39 55 37 105 50 147 39 33 -8 65 -8 115 1 42 7 81 -5 142 -46 29 -20 58
-29 105 -33 62 -5 87 -11 245 -63 129 -42 372 -153 415 -190 8 -7 21 -14 29
-16 8 -2 22 -10 31 -18 9 -8 52 -42 94 -74 42 -33 91 -75 109 -95 41 -44 95
-86 125 -95 12 -4 20 -12 17 -17 -8 -12 36 -70 130 -173 53 -58 196 -292 246
-404 12 -26 33 -74 49 -107 31 -69 64 -155 79 -205 5 -19 17 -61 26 -92 l16
-58 43 0 44 0 -12 58 c-12 53 -30 119 -62 218 -14 45 -94 216 -104 224 -4 3
-10 17 -14 32 -6 25 -47 100 -88 160 -10 15 -18 30 -18 33 0 26 -178 267 -191
259 -5 -3 -6 1 -4 8 10 25 -282 297 -401 375 -11 7 -35 23 -54 36 -63 41 -134
80 -232 129 -117 58 -175 79 -196 71 -10 -4 -13 -2 -8 5 13 21 -206 81 -424
118 -108 17 -375 17 -450 -1z m850 -115 c0 -5 -5 -10 -11 -10 -5 0 -7 5 -4 10
3 6 8 10 11 10 2 0 4 -4 4 -10z m-1500 -181 c0 -6 -4 -7 -10 -4 -5 3 -10 11
-10 16 0 6 5 7 10 4 6 -3 10 -11 10 -16z m2300 -329 c0 -5 -4 -10 -10 -10 -5
0 -10 5 -10 10 0 6 5 10 10 10 6 0 10 -4 10 -10z m-55 -10 c3 -5 -1 -10 -9
-10 -9 0 -16 5 -16 10 0 6 4 10 9 10 6 0 13 -4 16 -10z m85 -86 c0 -8 -5 -12
-10 -9 -6 4 -8 11 -5 16 9 14 15 11 15 -7z m260 -328 c0 -2 -7 -7 -16 -10 -8
-3 -12 -2 -9 4 6 10 25 14 25 6z m-3560 -306 c0 -5 -4 -10 -10 -10 -5 0 -10 5
-10 10 0 6 5 10 10 10 6 0 10 -4 10 -10z m-33 -192 c-3 -8 -6 -5 -6 6 -1 11 2
17 5 13 3 -3 4 -12 1 -19z m-39 -83 c-3 -3 -9 2 -12 12 -6 14 -5 15 5 6 7 -7
10 -15 7 -18z"/>
<path d="M2260 4462 c-27 -4 -107 -62 -170 -123 -54 -53 -137 -119 -204 -164
-114 -75 -200 -195 -225 -315 -38 -176 -47 -200 -74 -200 -23 0 -102 48 -167
101 -25 21 -81 56 -125 78 -71 37 -87 41 -150 40 -80 -1 -113 -15 -158 -71
-65 -80 -89 -299 -47 -427 60 -182 225 -373 399 -461 79 -39 181 -80 202 -80
23 0 82 -120 72 -147 -3 -10 -17 -31 -31 -47 -30 -38 -26 -78 17 -140 17 -25
31 -48 31 -51 0 -17 88 -125 118 -145 28 -20 41 -22 93 -17 58 5 61 4 78 -24
13 -22 18 -52 19 -119 0 -83 2 -92 32 -134 17 -26 37 -46 44 -46 7 0 25 -9 39
-20 14 -11 32 -20 40 -20 7 0 28 -7 46 -16 48 -24 239 -35 341 -20 25 4 64 10
87 13 23 3 47 11 54 19 6 8 17 14 24 14 24 0 101 50 123 80 19 25 23 45 26
130 3 71 8 107 20 125 15 23 21 25 70 19 56 -7 88 4 116 37 100 120 170 227
170 260 0 14 -11 40 -25 59 -31 43 -31 70 0 134 21 44 31 53 67 64 24 7 89 36
146 63 86 43 116 64 185 133 156 156 233 335 231 531 -5 297 -187 393 -426
223 -26 -18 -83 -59 -127 -90 -43 -32 -83 -58 -89 -58 -14 0 -40 68 -57 153
-34 171 -107 287 -240 377 -47 31 -126 99 -240 205 -74 68 -98 78 -171 72 -34
-2 -80 -2 -101 2 -21 4 -49 5 -63 3z m267 -74 c19 -18 44 -46 56 -63 20 -28
19 -28 -20 7 -95 85 -118 74 -31 -15 52 -53 73 -67 121 -81 33 -10 74 -31 95
-49 20 -18 63 -51 96 -72 104 -71 148 -140 185 -290 25 -98 27 -132 9 -118
-46 33 -236 82 -408 104 -119 15 -409 15 -515 0 -178 -25 -359 -69 -418 -102
-35 -19 -34 -6 8 169 7 28 25 73 41 99 27 47 108 133 125 133 8 0 148 100 175
125 6 5 42 39 80 75 129 123 114 116 248 113 l119 -2 34 -33z m-1254 -579 c34
-17 96 -57 137 -89 112 -86 234 -162 367 -228 122 -62 160 -75 328 -113 195
-45 468 -28 680 43 147 48 433 219 559 333 10 10 48 33 85 51 50 25 79 34 119
34 129 0 184 -88 184 -293 -1 -85 -5 -114 -27 -172 -63 -170 -171 -317 -290
-393 -39 -25 -170 -92 -181 -92 -15 0 12 21 58 45 65 34 174 114 208 152 14
15 18 22 10 16 -8 -7 -19 -13 -24 -13 -6 0 -2 7 8 15 10 8 22 12 27 10 19 -12
149 216 174 305 14 51 19 182 5 140 l-8 -25 -1 24 c-1 35 -49 117 -77 131 -33
18 -105 15 -145 -5 -19 -10 -63 -39 -99 -65 -71 -53 -188 -115 -197 -106 -3 3
3 9 13 13 29 11 167 95 189 116 98 91 205 108 273 45 29 -28 29 -7 -1 27 -27
32 -97 44 -148 26 -47 -16 -46 -7 4 19 61 33 108 22 164 -36 36 -37 41 -40 31
-16 -6 15 -27 42 -46 60 -30 27 -43 32 -85 32 -50 0 -124 -33 -172 -77 -65
-60 -291 -213 -315 -213 -4 0 -25 -7 -45 -16 -27 -11 -35 -18 -25 -24 17 -10
-53 -47 -101 -54 -19 -2 -56 -13 -84 -24 -27 -11 -63 -22 -80 -25 -16 -3 -70
-14 -120 -24 -133 -26 -386 -24 -525 4 -58 12 -125 24 -150 28 -64 10 -221 63
-250 86 l-25 19 30 -9 c17 -5 39 -12 49 -17 12 -4 17 -4 13 3 -3 5 -25 15 -49
22 -71 22 -172 76 -270 147 -231 167 -245 174 -325 174 -52 0 -58 -3 -99 -44
-34 -34 -44 -39 -44 -24 0 10 20 39 45 63 44 45 45 45 115 45 59 0 81 -5 133
-31z m1121 -66 c6 -20 14 -23 55 -23 26 0 51 -3 54 -7 4 -3 -11 -19 -33 -35
-35 -26 -38 -32 -30 -54 6 -14 10 -34 10 -45 0 -19 -2 -19 -41 5 l-42 24 -40
-25 -40 -25 7 50 c6 49 6 50 -29 72 -19 12 -35 26 -35 31 0 5 23 9 51 9 50 0
51 1 66 40 14 36 17 38 28 23 7 -10 15 -28 19 -40z m-1179 16 c67 -31 63 -38
-9 -18 -125 34 -195 -15 -204 -143 -4 -55 1 -84 28 -172 6 -16 8 -32 5 -34 -6
-6 -35 67 -35 89 0 11 -4 19 -10 19 -5 0 -10 -3 -10 -7 1 -14 28 -117 36 -138
11 -29 102 -165 130 -196 13 -14 21 -29 17 -33 -4 -4 1 -4 12 0 14 6 17 4 12
-9 -3 -9 1 -21 11 -29 15 -12 16 -11 3 5 -21 27 1 19 39 -14 19 -17 28 -28 20
-24 -37 16 53 -50 132 -96 49 -29 86 -54 84 -56 -12 -12 -150 64 -253 139 -90
66 -211 243 -248 363 -17 59 -19 197 -2 240 48 121 137 163 242 114z m769 -74
l41 -6 -28 -23 c-26 -21 -28 -27 -21 -62 l7 -38 -26 17 c-34 22 -43 21 -80 -5
l-30 -22 6 43 c4 37 2 44 -19 58 -29 18 -22 30 21 35 23 2 33 11 45 36 l14 34
14 -30 c12 -24 23 -31 56 -37z m861 25 c12 -23 22 -30 45 -30 36 0 38 -14 5
-36 -20 -13 -23 -20 -14 -36 6 -10 9 -26 7 -34 -2 -13 -8 -12 -30 6 l-28 21
-27 -21 -28 -22 -3 41 c-2 28 -9 44 -23 51 -29 16 -23 28 16 36 26 5 37 13 41
30 8 32 20 30 39 -6z m-1580 -14 c28 -13 66 -36 85 -53 63 -54 128 -93 215
-130 47 -19 84 -37 82 -39 -4 -4 -96 31 -174 67 -23 10 -70 41 -105 68 -158
120 -274 138 -313 45 -17 -41 -20 -140 -5 -179 6 -15 6 -24 1 -20 -5 3 -15 30
-22 60 -21 93 10 184 71 208 27 11 114 -3 165 -27z m-44 -33 c6 -6 -11 -8 -46
-5 -51 4 -59 2 -87 -24 -25 -24 -29 -25 -19 -7 20 39 52 55 99 50 24 -3 48 -9
53 -14z m2389 -8 c17 -9 36 -31 45 -51 22 -53 18 -66 -5 -16 -25 55 -76 80
-132 65 -21 -6 -38 -7 -38 -2 0 20 93 23 130 4z m-1917 -23 c-6 -24 -23 -30
-23 -9 0 13 21 39 26 34 2 -2 1 -13 -3 -25z m1357 7 c0 -11 -4 -17 -10 -14 -5
3 -10 13 -10 21 0 8 5 14 10 14 6 0 10 -9 10 -21z m-910 -3 c0 -3 -4 -8 -10
-11 -5 -3 -10 -1 -10 4 0 6 5 11 10 11 6 0 10 -2 10 -4z m-1002 -23 c-10 -2
-18 -9 -18 -14 0 -5 -5 -9 -11 -9 -8 0 -8 5 1 15 7 8 20 14 29 14 13 -1 13 -2
-1 -6z m2453 -10 c12 -16 12 -17 -1 -7 -8 6 -22 14 -30 17 -13 5 -12 6 1 6 9
1 23 -7 30 -16z m-1466 -43 c-3 -5 -11 -10 -16 -10 -6 0 -7 5 -4 10 3 6 11 10
16 10 6 0 7 -4 4 -10z m753 -55 c-6 -27 -184 -81 -372 -115 -133 -23 -284 -8
-516 52 -56 15 -150 54 -150 63 0 3 226 5 501 5 276 0 504 2 507 5 9 9 33 1
30 -10z m809 -29 c-6 -39 -35 -111 -42 -104 -3 3 2 21 10 41 8 20 15 53 15 72
0 24 4 34 11 29 6 -4 9 -20 6 -38z m-537 24 c-8 -5 -19 -10 -25 -10 -5 0 -3 5
5 10 8 5 20 10 25 10 6 0 3 -5 -5 -10z m487 -32 c-3 -8 -6 -5 -6 6 -1 11 2 17
5 13 3 -3 4 -12 1 -19z m-2583 -104 c3 -8 2 -12 -4 -9 -6 3 -10 10 -10 16 0
14 7 11 14 -7z m724 -31 c-3 -26 -1 -28 32 -26 30 2 31 1 10 -5 -14 -5 -26
-16 -28 -25 -3 -15 0 -16 23 -7 38 14 112 12 178 -5 72 -19 80 -18 42 2 -36
20 -120 42 -160 44 -16 0 -24 3 -16 6 15 6 159 -10 301 -33 127 -21 278 -17
488 12 193 26 253 25 284 -3 17 -15 18 -14 18 26 0 26 4 40 10 36 6 -3 10 -34
10 -68 0 -44 3 -58 10 -47 5 8 10 32 10 52 0 20 5 40 10 43 13 8 3 -63 -16
-120 -8 -22 -14 -57 -14 -77 0 -34 32 -126 49 -138 23 -17 53 -76 57 -117 5
-39 1 -58 -20 -99 -29 -57 -35 -92 -11 -60 27 35 26 9 0 -38 l-26 -47 31 16
31 16 -15 -30 c-9 -16 -16 -40 -16 -53 0 -20 3 -19 21 12 12 19 23 37 25 39 6
6 33 -32 34 -46 0 -16 -63 -114 -85 -133 -9 -8 -31 -34 -48 -59 -50 -74 -72
-83 -132 -57 l-30 14 27 10 c33 14 108 80 108 96 0 6 -6 4 -13 -5 -7 -9 -39
-30 -72 -47 -72 -36 -119 -75 -151 -122 -27 -39 -30 -35 -10 13 18 44 72 94
125 118 61 27 47 33 -19 8 -75 -28 -105 -52 -128 -102 -26 -54 -34 -157 -13
-157 5 0 12 10 14 23 3 12 4 -2 3 -32 -1 -68 -21 -79 -34 -19 l-10 43 -2 -40
-2 -40 -9 39 c-12 52 -23 62 -14 14 8 -42 0 -88 -15 -88 -6 0 -10 13 -10 29 0
17 -4 33 -10 36 -6 4 -10 -6 -10 -23 0 -18 -6 -32 -16 -36 -24 -9 -36 -7 -29
4 9 15 -5 91 -16 85 -4 -3 -7 -27 -5 -54 2 -46 1 -48 -25 -48 -20 0 -26 4 -21
15 3 10 1 13 -7 8 -6 -4 -19 -2 -28 6 -14 11 -15 10 -9 -8 6 -19 2 -20 -60
-18 -43 1 -70 7 -75 15 -8 11 -12 10 -24 -5 -15 -20 -15 -20 -15 0 -1 18 -1
18 -14 1 -10 -13 -23 -16 -50 -13 -49 7 -56 12 -56 47 0 16 -4 29 -10 29 -5 0
-10 -17 -10 -37 -1 -36 -1 -37 -16 -18 -9 12 -12 30 -9 43 4 15 2 21 -5 17 -5
-3 -10 1 -10 10 0 9 -4 13 -10 10 -5 -3 -7 -20 -4 -38 3 -25 2 -28 -5 -12 -8
18 -9 19 -16 3 -14 -34 -25 -7 -24 55 2 57 2 59 9 22 4 -22 8 -32 9 -23 0 9 6
18 12 20 8 3 8 20 -1 62 -20 100 -56 140 -147 170 -40 13 -50 21 -46 33 4 11
2 14 -5 9 -22 -13 -12 -27 32 -46 46 -21 119 -93 131 -129 11 -36 -1 -35 -23
1 -32 52 -83 94 -136 113 -26 10 -54 25 -62 32 -12 12 -14 12 -14 -1 0 -18 67
-66 92 -66 9 0 20 -4 23 -10 10 -16 -23 -12 -65 9 -22 11 -40 15 -40 11 0 -5
14 -14 30 -22 37 -16 38 -28 3 -28 -35 0 -68 28 -130 110 -100 133 -104 147
-64 199 l19 24 0 -25 c0 -15 7 -37 17 -50 17 -23 17 -23 10 19 -5 33 -3 42 9
45 14 3 14 7 3 28 -7 14 -16 34 -21 45 -6 17 -4 17 18 -4 15 -14 26 -22 26
-19 0 17 -48 117 -53 112 -4 -4 -7 11 -7 34 0 44 37 139 62 159 8 7 23 37 33
68 17 49 18 60 5 103 -7 26 -15 67 -16 92 l-3 45 12 -42 c18 -63 28 -64 21 -1
-6 53 -2 88 11 88 3 0 4 -12 3 -27z m-152 -77 c-1 -52 2 -92 6 -90 4 3 8 1 8
-5 0 -5 3 -18 6 -28 5 -15 4 -16 -6 -3 -9 12 -10 3 -6 -40 l5 -55 -19 65 -19
65 5 -70 c4 -54 3 -66 -6 -52 -14 22 -30 161 -19 165 5 2 9 17 9 34 0 36 20
108 30 108 4 0 7 -42 6 -94z m58 -86 c4 -16 0 -13 -10 10 -20 41 -30 131 -18
157 5 12 10 -8 15 -62 4 -44 10 -91 13 -105z m1390 85 c-7 -53 -25 -118 -37
-130 -6 -6 -7 -1 -3 15 17 58 25 108 26 160 2 49 3 52 11 25 4 -16 6 -48 3
-70z m50 79 c3 -9 6 -40 6 -71 0 -43 3 -54 14 -50 18 7 11 -107 -11 -178 -19
-59 -30 -43 -14 20 6 24 11 54 10 67 0 22 -1 22 -9 3 -5 -11 -11 -33 -15 -49
-11 -53 -16 -18 -6 40 7 35 8 60 2 62 -5 2 -5 18 1 40 6 20 8 58 6 84 -5 47 4
64 16 32z m-1415 -51 c0 -47 -2 -54 -10 -34 -8 21 -3 91 7 91 2 0 4 -26 3 -57z
m1312 -78 l-11 -40 5 49 c3 27 6 67 7 90 2 38 2 38 5 -9 2 -27 -1 -68 -6 -90z
m-1486 15 c3 -5 1 -10 -4 -10 -6 0 -11 5 -11 10 0 6 2 10 4 10 3 0 8 -4 11
-10z m1785 0 c0 -5 -5 -10 -11 -10 -5 0 -7 5 -4 10 3 6 8 10 11 10 2 0 4 -4 4
-10z m-1597 -30 c3 -11 1 -20 -4 -20 -5 0 -9 9 -9 20 0 11 2 20 4 20 2 0 6 -9
9 -20z m1454 -122 c-6 -98 -33 -207 -60 -233 -10 -10 -8 4 14 100 9 39 38 212
39 228 0 4 3 7 6 7 4 0 4 -46 1 -102z m275 78 c7 4 8 2 4 -4 -4 -6 -13 -9 -21
-6 -8 4 -12 11 -8 17 5 8 8 7 11 -1 2 -7 9 -9 14 -6z m-371 -27 c-5 -13 -10
-19 -10 -12 -1 15 10 45 15 40 3 -2 0 -15 -5 -28z m-1475 -209 c29 -114 28
-108 7 -82 -11 13 -25 44 -32 70 -7 26 -17 60 -22 76 -5 16 -9 61 -8 100 l1
71 19 -85 c10 -47 26 -114 35 -150z m102 205 c-3 -3 -9 2 -12 12 -6 14 -5 15
5 6 7 -7 10 -15 7 -18z m1629 3 c-3 -8 -6 -5 -6 6 -1 11 2 17 5 13 3 -3 4 -12
1 -19z m83 -3 c0 -9 -6 -12 -15 -9 -8 4 -15 10 -15 15 0 5 7 9 15 9 8 0 15 -7
15 -15z m-1750 -40 c0 -5 -5 -3 -10 5 -5 8 -10 20 -10 25 0 6 5 3 10 -5 5 -8
10 -19 10 -25z m-46 -71 c3 -8 2 -12 -4 -9 -6 3 -10 10 -10 16 0 14 7 11 14
-7z m375 -871 c1 -7 -3 -13 -9 -13 -5 0 -10 15 -9 33 0 27 2 29 9 12 5 -11 9
-26 9 -32z m747 0 c-11 -11 -17 4 -9 23 7 18 8 18 11 1 2 -10 1 -21 -2 -24z
m14 -65 c0 -5 -4 -8 -10 -8 -5 0 -10 10 -10 23 0 18 2 19 10 7 5 -8 10 -18 10
-22z m-773 0 c-3 -8 -6 -5 -6 6 -1 11 2 17 5 13 3 -3 4 -12 1 -19z m732 -45
c1 -13 -3 -23 -9 -23 -13 0 -24 46 -15 67 7 17 8 16 15 -2 5 -11 9 -30 9 -42z
m-679 28 c0 -28 -11 -52 -21 -45 -10 6 -12 48 -2 57 12 13 23 7 23 -12z m59
-13 c-1 -48 -11 -69 -28 -58 -12 7 -13 15 -2 49 14 49 31 54 30 9z m569 -40
c-6 -40 -26 -30 -30 14 -3 24 -3 47 0 52 8 14 34 -43 30 -66z m-498 -11 c0
-31 -3 -38 -17 -35 -22 4 -29 48 -13 79 16 29 30 8 30 -44z m348 51 c7 -7 12
-34 12 -60 0 -41 -3 -48 -20 -48 -18 0 -20 7 -20 60 0 60 6 70 28 48z m82 -18
c10 -23 10 -37 2 -55 -19 -41 -32 -29 -32 30 0 61 11 70 30 25z m-360 -12 c0
-18 3 -43 6 -55 5 -20 2 -23 -20 -23 -24 0 -26 4 -26 39 0 49 8 71 26 71 9 0
14 -11 14 -32z m112 -19 c3 -54 -4 -69 -37 -69 -30 0 -45 19 -45 56 0 34 28
64 61 64 13 0 18 -11 21 -51z m97 35 c3 -2 5 -26 5 -52 l1 -47 -35 0 c-29 0
-36 4 -38 24 -2 13 -1 39 3 58 6 32 9 34 33 28 15 -4 29 -9 31 -11z"/>
<path d="M2192 4348 c-52 -36 -180 -158 -167 -158 5 0 -4 -10 -21 -22 -187
-137 -256 -204 -274 -267 -17 -58 -24 -121 -13 -121 5 0 9 15 10 33 1 50 39
114 102 177 50 49 85 71 201 124 63 29 146 85 196 130 27 25 46 45 43 46 -4 0
-26 -18 -50 -40 -24 -22 -48 -40 -52 -40 -5 0 -29 -14 -54 -31 -25 -18 -68
-40 -97 -50 l-51 -19 25 20 c14 11 67 43 118 71 51 28 91 53 88 56 -3 3 -37
-11 -76 -31 -39 -21 -76 -35 -83 -33 -7 3 -4 8 8 12 49 19 205 146 205 167 0
14 -13 8 -58 -24z"/>
<path d="M2445 4293 c40 -38 145 -107 220 -145 159 -80 255 -160 302 -251 26
-52 25 -69 -4 -46 -16 12 -17 12 -6 -2 7 -9 11 -18 8 -21 -3 -2 6 -15 20 -28
28 -27 29 -23 14 52 -22 104 -47 141 -147 216 -42 31 -86 62 -97 69 -11 6 -19
14 -17 17 11 27 -60 71 -128 80 -31 4 -37 3 -20 -3 44 -14 152 -72 146 -78 -8
-9 -116 37 -161 68 -43 31 -146 87 -130 72z"/>
<path d="M2510 4190 c19 -17 85 -55 145 -85 61 -30 124 -66 140 -80 l30 -25
-35 15 c-19 8 -53 23 -75 32 -22 9 -85 39 -140 65 -165 79 -67 20 149 -89 199
-101 200 -102 156 -59 -25 24 -54 56 -64 71 -11 17 -49 41 -95 62 -110 50
-171 80 -211 104 l-35 21 35 -32z"/>
<path d="M2215 4194 c-11 -9 -51 -33 -88 -55 -37 -22 -82 -53 -100 -68 -39
-34 -138 -94 -144 -88 -2 3 16 16 40 30 72 43 89 80 19 43 -26 -14 -120 -116
-107 -116 18 0 138 65 171 93 22 18 80 59 130 90 86 54 128 87 108 87 -5 0
-18 -8 -29 -16z"/>
<path d="M2220 4139 c-8 -5 -51 -30 -95 -54 -44 -25 -76 -45 -72 -45 11 0 137
65 172 89 29 20 25 29 -5 10z"/>
<path d="M2540 4066 c0 -2 7 -7 16 -10 8 -3 12 -2 9 4 -6 10 -25 14 -25 6z"/>
<path d="M2660 4016 c0 -5 177 -105 240 -136 l45 -22 -33 29 c-29 26 -91 60
-211 117 -36 17 -41 18 -41 12z"/>
<path d="M2595 3990 c-3 -5 -1 -10 4 -10 6 0 11 5 11 10 0 6 -2 10 -4 10 -3 0
-8 -4 -11 -10z"/>
<path d="M1883 3932 c-61 -31 -116 -64 -121 -72 -11 -18 153 61 213 103 60 41
32 32 -92 -31z"/>
<path d="M2725 3930 c3 -5 14 -10 23 -10 15 0 15 2 2 10 -20 13 -33 13 -25 0z"/>
<path d="M1985 3912 c-3 -4 -43 -21 -88 -37 -45 -17 -82 -35 -82 -40 0 -6 -4
-15 -7 -21 -4 -6 17 1 48 17 30 16 79 37 109 47 42 13 50 19 40 29 -7 6 -16 9
-20 5z"/>
<path d="M2700 3892 c8 -5 52 -17 97 -27 45 -10 81 -22 80 -27 -1 -5 14 -16
33 -23 31 -13 33 -13 16 0 -11 8 -23 15 -28 15 -4 0 -7 5 -5 11 1 7 -23 21
-53 31 -58 21 -166 36 -140 20z"/>
<path d="M2311 3881 c-9 -6 9 -8 48 -7 33 0 61 4 61 9 0 10 -92 9 -109 -2z"/>
<path d="M1955 3834 c-27 -8 -73 -21 -101 -30 -28 -8 -55 -14 -60 -12 -13 3
-84 -33 -84 -43 0 -5 2 -9 5 -9 6 0 158 49 270 86 76 25 52 32 -30 8z"/>
<path d="M2695 3841 c11 -5 65 -23 120 -39 55 -17 124 -39 153 -51 28 -11 52
-16 52 -11 0 14 -32 29 -144 65 -96 32 -227 57 -181 36z"/>
<path d="M1758 3828 c-16 -5 -28 -14 -28 -19 0 -6 6 -7 13 -2 6 4 18 8 26 10
16 2 40 23 26 22 -6 0 -22 -5 -37 -11z"/>
<path d="M2959 3453 c-13 -17 -13 -17 6 -3 11 8 22 16 24 17 2 2 0 3 -6 3 -6
0 -17 -8 -24 -17z"/>
<path d="M2748 3493 c6 -2 18 -2 25 0 6 3 1 5 -13 5 -14 0 -19 -2 -12 -5z"/>
<path d="M2420 3480 c0 -5 5 -10 10 -10 6 0 10 5 10 10 0 6 -4 10 -10 10 -5 0
-10 -4 -10 -10z"/>
<path d="M2148 3453 c7 -3 16 -2 19 1 4 3 -2 6 -13 5 -11 0 -14 -3 -6 -6z"/>
<path d="M2765 3295 c-110 -36 -130 -57 -29 -30 69 18 119 19 163 4 52 -18 35
-28 -20 -11 -48 16 -52 15 -120 -7 -38 -13 -69 -28 -69 -33 0 -11 7 -10 30 2
42 23 116 29 163 15 43 -13 48 -12 56 3 12 23 -5 46 -48 60 -42 15 -74 14
-126 -3z"/>
<path d="M1823 3258 c-46 -15 -42 -32 5 -22 53 12 110 9 162 -9 61 -22 64 -12
4 15 -57 25 -126 32 -171 16z"/>
<path d="M1825 3215 c-29 -14 -27 -15 40 -9 42 3 81 1 99 -5 16 -7 31 -9 34
-7 8 9 -51 28 -98 32 -26 2 -57 -3 -75 -11z"/>
<path d="M2430 3219 c0 -5 5 -7 10 -4 6 3 10 8 10 11 0 2 -4 4 -10 4 -5 0 -10
-5 -10 -11z"/>
<path d="M2765 3209 c-22 -11 -29 -16 -15 -13 34 10 110 9 138 -1 12 -4 22 -3
22 2 0 11 -59 33 -86 32 -10 0 -37 -9 -59 -20z"/>
<path d="M1899 3153 c5 -25 6 -26 9 -6 2 12 11 24 20 26 10 3 7 5 -9 6 -24 1
-26 -2 -20 -26z"/>
<path d="M2655 3140 c3 -5 11 -10 16 -10 6 0 7 5 4 10 -3 6 -11 10 -16 10 -6
0 -7 -4 -4 -10z"/>
<path d="M2063 3060 c41 -41 45 -70 4 -32 -24 22 -77 46 -85 38 -3 -3 1 -12 7
-20 10 -12 6 -16 -26 -25 -21 -6 -48 -11 -60 -11 -12 0 -47 -9 -78 -21 -43
-16 -62 -30 -85 -64 -39 -56 -38 -72 2 -44 l31 22 -7 -29 c-23 -98 -24 -108
-8 -150 21 -58 45 -68 37 -16 l-6 37 15 -27 c18 -29 68 -58 100 -57 15 1 11 4
-11 10 -32 9 -90 76 -76 88 3 3 8 0 10 -6 17 -48 97 -81 162 -67 l26 5 -27
-16 c-39 -22 -35 -28 15 -20 l42 6 -30 -19 c-28 -18 -52 -25 -116 -39 -32 -6
-78 15 -59 27 9 6 9 9 0 15 -7 4 -16 2 -21 -6 -12 -20 -38 8 -73 76 -30 59
-48 68 -25 13 22 -56 60 -107 96 -129 37 -23 105 -28 128 -9 7 6 31 13 52 14
107 10 153 30 203 90 14 16 35 39 48 50 18 16 22 30 22 73 0 29 -4 53 -10 53
-5 0 -10 -15 -10 -34 0 -19 -5 -38 -10 -41 -16 -10 0 77 18 98 9 10 22 15 29
13 8 -3 13 2 13 14 0 11 5 20 10 20 6 0 19 9 30 20 23 23 50 26 50 6 0 -7 9
-16 20 -19 15 -4 20 -14 20 -40 0 -20 -6 -37 -12 -39 -10 -4 -9 -16 4 -54 l16
-49 0 63 c0 64 15 102 28 69 3 -9 10 -14 15 -11 5 3 8 -19 8 -48 -1 -31 -4
-41 -6 -23 -6 48 -12 60 -24 48 -14 -14 -1 -101 18 -116 14 -12 35 -33 63 -66
8 -10 28 -26 43 -36 26 -17 49 -23 152 -44 22 -5 53 -13 68 -20 44 -17 98 2
140 49 43 46 79 115 75 138 -2 11 -11 1 -25 -28 -27 -55 -67 -100 -88 -100 -8
0 -15 -6 -15 -14 0 -27 -70 -36 -92 -13 -6 8 -21 12 -32 10 -12 -2 -31 5 -43
14 -22 18 -21 18 50 18 90 1 124 21 161 98 24 49 26 44 11 -26 -10 -48 18 -27
34 26 15 47 14 50 -28 152 -2 5 12 -2 32 -18 49 -37 59 -16 16 31 -19 21 -37
40 -40 45 -10 13 -113 47 -145 47 -47 0 -98 20 -85 33 6 6 11 15 11 19 0 17
-27 7 -63 -23 -52 -43 -60 -28 -12 21 22 22 35 40 29 40 -13 0 -57 -31 -67
-47 -5 -7 -12 -11 -17 -8 -4 3 -11 -3 -14 -12 -4 -9 -2 -19 3 -22 6 -4 6 -12
1 -21 -8 -13 -10 -12 -10 3 0 23 -16 22 -38 -4 -32 -40 -44 -50 -51 -43 -3 4
-1 9 6 11 7 2 10 10 7 17 -3 7 2 19 11 26 8 7 15 17 15 23 0 5 -9 2 -20 -8
-11 -10 -20 -14 -20 -10 0 5 -7 0 -15 -11 -13 -17 -14 -18 -15 -1 0 10 7 29
16 43 13 19 14 23 2 19 -8 -3 -22 -19 -32 -36 -23 -39 -31 -31 -16 16 7 20 10
39 7 42 -7 6 -37 -51 -38 -74 -1 -10 -5 0 -8 22 l-6 40 -16 -34 c-18 -35 -21
-34 -34 14 l-9 30 -6 -35 -6 -35 -18 38 c-28 58 -30 51 -9 -38 3 -14 -4 -10
-26 15 -32 37 -40 32 -16 -10 26 -45 16 -48 -26 -8 -23 22 -44 36 -47 33 -4
-4 1 -11 11 -16 15 -9 47 -59 47 -74 0 -14 -25 2 -25 16 -1 8 -7 13 -14 11 -7
-1 -10 1 -7 6 3 5 -5 14 -18 20 -15 6 -27 23 -31 41 -8 40 -25 50 -25 16 l0
-26 -34 35 c-18 20 -40 36 -49 36 -9 0 1 -15 26 -40z m77 -73 c0 -5 -4 -5 -10
-2 -5 3 -10 14 -10 23 0 15 2 15 10 2 5 -8 10 -19 10 -23z m738 -227 c-7 -11
-32 -30 -55 -42 -39 -21 -43 -21 -75 -6 l-33 15 50 -4 c45 -5 53 -2 80 25 35
35 50 40 33 12z m-996 -20 c12 -11 17 -20 11 -20 -5 0 -18 9 -28 20 -10 11
-15 20 -11 20 4 0 16 -9 28 -20z m1009 -28 c-13 -19 -36 -34 -65 -42 -38 -10
-51 -10 -91 5 -57 22 -54 27 7 13 64 -15 123 2 146 42 10 16 18 25 20 20 2 -5
-6 -23 -17 -38z m-710 10 c-11 -20 -41 -48 -41 -38 0 6 41 56 47 56 2 0 -1 -8
-6 -18z m-206 -12 c-3 -5 -17 -10 -30 -10 -13 0 -27 5 -30 10 -4 6 8 10 30 10
22 0 34 -4 30 -10z m615 -21 c0 -5 6 -9 14 -9 7 0 19 -7 26 -15 21 -26 -4 -16
-40 15 -19 16 -27 27 -17 24 9 -3 17 -10 17 -15z m-460 -9 c0 -5 -9 -14 -20
-20 -24 -13 -26 -7 -4 14 18 18 24 20 24 6z"/>
<path d="M1766 3054 c-8 -20 0 -32 14 -18 5 5 5 15 1 22 -6 11 -10 10 -15 -4z"/>
<path d="M1800 3060 c0 -5 5 -10 10 -10 6 0 10 5 10 10 0 6 -4 10 -10 10 -5 0
-10 -4 -10 -10z"/>
<path d="M2910 3067 c0 -2 14 -13 30 -25 24 -18 30 -20 30 -7 0 8 -7 15 -16
15 -8 0 -12 5 -9 10 3 6 -3 10 -14 10 -12 0 -21 -1 -21 -3z"/>
<path d="M1666 2882 c-9 -15 3 -59 20 -73 17 -14 17 -5 0 45 -7 21 -16 34 -20
28z"/>
<path d="M2289 2831 c4 -55 4 -56 16 -26 27 65 27 72 3 77 -22 4 -23 2 -19
-51z"/>
<path d="M3050 2866 c0 -14 -4 -28 -10 -31 -12 -7 -13 -35 -2 -35 8 0 32 58
32 78 0 7 -4 12 -10 12 -5 0 -10 -11 -10 -24z"/>
<path d="M2317 2699 c-43 -45 -91 -152 -108 -241 -14 -69 -1 -116 42 -153 38
-31 55 -32 70 -2 7 12 17 25 23 29 7 5 13 72 17 180 l5 173 2 -162 c1 -89 5
-169 9 -178 5 -15 8 -14 20 6 8 13 12 16 9 6 -3 -9 -3 -31 1 -47 7 -38 31 -39
72 -5 59 50 64 133 15 249 -36 86 -52 113 -80 141 -13 13 -24 29 -24 35 0 23
-37 7 -73 -31z m-13 -365 c9 -24 7 -28 -9 -14 -17 14 -20 30 -6 30 5 0 12 -7
15 -16z m146 1 c0 -8 -4 -15 -10 -15 -5 0 -10 7 -10 15 0 8 5 15 10 15 6 0 10
-7 10 -15z"/>
<path d="M2470 2702 c0 -6 5 -14 10 -17 6 -3 10 -16 10 -29 0 -13 7 -37 16
-55 9 -18 21 -61 27 -97 6 -35 15 -64 19 -64 15 0 21 54 8 84 -7 17 -22 58
-34 91 -20 56 -56 113 -56 87z"/>
<path d="M2226 2665 c-5 -11 -19 -48 -32 -83 -25 -65 -31 -117 -14 -127 6 -3
10 3 10 14 0 11 12 56 26 101 14 45 23 89 21 98 -3 15 -5 14 -11 -3z"/>
<path d="M2830 2630 l-25 -8 27 -1 c15 -1 30 4 33 9 7 11 0 11 -35 0z"/>
<path d="M1883 2623 c9 -2 23 -2 30 0 6 3 -1 5 -18 5 -16 0 -22 -2 -12 -5z"/>
<path d="M2160 2619 c0 -5 5 -7 10 -4 6 3 10 8 10 11 0 2 -4 4 -10 4 -5 0 -10
-5 -10 -11z"/>
<path d="M1620 2600 c0 -21 17 -46 25 -38 4 4 0 17 -9 30 -10 14 -16 17 -16 8z"/>
<path d="M3090 2591 c-6 -12 -7 -21 -1 -21 10 0 24 30 17 37 -2 3 -9 -5 -16
-16z"/>
<path d="M2048 2584 c-16 -8 -28 -17 -28 -19 0 -11 19 -4 41 15 29 23 24 25
-13 4z"/>
<path d="M1970 2550 c-8 -5 -26 -10 -40 -10 -30 0 -136 -48 -127 -57 4 -3 35
4 69 15 72 24 150 62 128 62 -8 0 -22 -5 -30 -10z"/>
<path d="M3066 2536 c-9 -14 -16 -33 -16 -43 1 -10 9 -1 20 21 23 45 20 58 -4
22z"/>
<path d="M2650 2524 c0 -14 4 -23 10 -19 6 3 10 15 10 26 0 10 -4 19 -10 19
-5 0 -10 -12 -10 -26z"/>
<path d="M2758 2538 c12 -15 129 -58 158 -58 7 0 16 6 20 13 4 6 4 9 -1 5 -4
-4 -24 1 -44 11 -20 10 -53 21 -74 25 -21 4 -46 10 -55 13 -15 6 -15 4 -4 -9z"/>
<path d="M1650 2534 c0 -5 7 -19 15 -30 8 -10 15 -14 15 -8 0 5 -7 19 -15 30
-8 10 -15 14 -15 8z"/>
<path d="M2060 2532 c0 -12 34 -42 47 -42 6 0 14 -7 17 -16 8 -21 7 -31 -2
-19 -15 23 -71 55 -95 55 -13 0 -34 -9 -47 -20 -23 -20 -23 -20 -2 -20 30 0
67 -37 96 -95 14 -27 26 -43 26 -34 0 24 -25 80 -50 112 -12 15 -19 27 -16 27
11 0 46 -44 62 -79 10 -20 19 -31 21 -24 3 7 -1 22 -7 33 -6 12 -9 24 -7 27 3
3 15 -12 26 -34 l20 -38 0 45 c1 73 -10 122 -25 116 -8 -4 -21 -9 -29 -12 -10
-4 -15 0 -15 10 0 9 -4 16 -10 16 -5 0 -10 -4 -10 -8z"/>
<path d="M2596 2518 c-2 -7 -7 -44 -10 -83 l-5 -70 17 37 c20 44 37 50 28 11
l-7 -28 26 30 27 30 -21 -38 c-12 -21 -21 -46 -21 -55 1 -9 12 4 25 30 23 44
70 88 94 88 9 0 9 5 1 20 -12 22 -49 26 -80 10 -13 -7 -24 -4 -44 11 -20 15
-27 17 -30 7z m104 -42 c0 -2 -8 -10 -17 -17 -16 -13 -17 -12 -4 4 13 16 21
21 21 13z"/>
<path d="M2956 2409 c-21 -21 -44 -39 -52 -39 -7 0 -16 -4 -19 -10 -3 -5 2
-10 12 -10 17 0 72 45 102 83 25 31 -3 16 -43 -24z"/>
<path d="M1734 2422 c1 -17 19 -17 24 0 3 10 1 10 -6 -1 -9 -12 -11 -12 -14 0
-3 9 -5 10 -4 1z"/>
<path d="M2028 2375 c15 -23 29 -41 31 -39 7 7 -29 72 -43 77 -9 4 -4 -11 12
-38z"/>
<path d="M2702 2397 c-12 -13 -24 -38 -27 -57 -5 -32 -4 -33 5 -11 6 14 20 40
31 58 24 39 21 42 -9 10z"/>
<path d="M2537 2361 c-3 -16 -22 -45 -42 -66 -19 -21 -35 -39 -35 -41 0 -7 53
26 70 43 21 23 35 79 22 87 -5 3 -12 -7 -15 -23z"/>
<path d="M2170 2370 c0 -24 40 -87 69 -108 40 -29 39 -20 -3 31 -18 23 -37 52
-40 65 -7 22 -26 31 -26 12z"/>
<path d="M2356 2251 c-4 -5 -2 -12 3 -15 5 -4 12 -2 15 3 4 5 2 12 -3 15 -5 4
-12 2 -15 -3z"/>
<path d="M2140 2196 c0 -8 -3 -23 -6 -33 -5 -12 -4 -15 3 -8 16 15 26 55 14
55 -6 0 -11 -6 -11 -14z"/>
<path d="M2581 2195 c0 -11 4 -27 9 -35 9 -13 10 -13 9 0 0 8 -4 24 -9 35 l-9
20 0 -20z"/>
<path d="M2191 2143 c-15 -47 -8 -92 10 -60 6 9 9 36 7 60 l-3 42 -14 -42z"/>
<path d="M1985 4350 c-11 -4 -40 -13 -65 -20 -137 -37 -388 -150 -545 -245
-97 -59 -215 -144 -215 -155 0 -4 18 -10 40 -14 47 -7 195 -82 253 -129 23
-18 61 -45 84 -60 l42 -27 11 38 c7 20 20 71 29 112 37 153 117 267 256 360
40 27 96 71 126 99 49 46 52 50 29 50 -14 0 -34 -4 -45 -9z"/>
<path d="M2690 4352 c0 -10 89 -88 144 -125 79 -54 136 -109 177 -168 53 -78
67 -112 99 -239 17 -67 32 -106 41 -108 8 -1 56 30 108 68 101 75 199 128 257
137 l35 6 -33 34 c-86 90 -494 319 -530 297 -7 -4 -8 -3 -4 4 4 7 6 12 4 12
-2 0 -31 10 -63 21 -65 23 -215 68 -227 69 -5 0 -8 -4 -8 -8z m400 -192 c0 -5
-2 -10 -4 -10 -3 0 -8 5 -11 10 -3 6 -1 10 4 10 6 0 11 -4 11 -10z"/>
<path d="M3812 3543 c-2 -273 -199 -561 -466 -683 -44 -20 -92 -42 -106 -48
-19 -9 84 -11 440 -7 256 2 482 4 502 4 l37 0 -10 38 c-6 21 -14 47 -19 58 -4
11 -14 43 -21 70 -26 105 -178 426 -253 535 -64 92 -91 129 -97 130 -3 0 -7
-44 -7 -97z m48 -477 c47 8 52 -6 10 -25 -28 -12 -30 -16 -24 -49 3 -21 8 -45
11 -55 3 -13 -1 -12 -21 8 -28 28 -58 32 -76 10 -18 -22 -33 -19 -20 4 17 33
11 58 -17 80 l-28 20 36 1 c29 0 38 5 48 27 l13 28 14 -28 c13 -25 18 -27 54
-21z"/>
<path d="M806 3513 c-37 -65 -71 -125 -76 -133 -17 -27 -111 -224 -132 -275
-28 -69 -87 -233 -97 -270 l-8 -30 509 0 c484 0 507 1 471 17 -21 9 -44 17
-50 17 -27 2 -169 85 -232 136 -87 69 -141 129 -199 217 -87 134 -115 222
-113 355 1 46 0 83 -3 83 -2 0 -33 -53 -70 -117z m51 -105 c-3 -8 -6 -5 -6 6
-1 11 2 17 5 13 3 -3 4 -12 1 -19z m-117 -287 c0 -6 -4 -13 -10 -16 -5 -3 -10
1 -10 9 0 9 5 16 10 16 6 0 10 -4 10 -9z m229 -53 l46 -3 -37 -22 c-35 -21
-36 -23 -27 -55 15 -55 12 -64 -14 -40 -29 27 -37 27 -66 1 l-22 -21 7 50 c6
48 5 49 -25 62 -47 19 -47 30 -1 28 44 -1 59 11 60 47 0 15 4 12 16 -12 14
-28 21 -32 63 -35z m-152 -200 c-3 -8 -6 -5 -6 6 -1 11 2 17 5 13 3 -3 4 -12
1 -19z"/>
<path d="M265 2752 c-77 -12 -82 -24 -53 -139 l21 -83 -22 -24 c-12 -12 -19
-29 -16 -37 3 -8 7 -48 9 -89 2 -41 7 -84 11 -94 6 -14 5 -17 -3 -12 -17 10
-16 -88 1 -102 8 -7 176 -12 494 -14 265 -2 485 -6 489 -10 4 -5 5 -10 2 -13
-9 -9 -156 -14 -440 -14 l-278 -1 0 -25 c0 -23 4 -25 48 -26 26 0 61 -2 77 -4
17 -1 308 -3 647 -5 373 -1 618 -5 618 -11 0 -5 9 -9 20 -9 20 0 20 4 15 101
-3 56 -7 105 -10 109 -3 5 -29 6 -58 3 -64 -6 -96 8 -147 64 -38 42 -100 127
-100 138 0 3 -14 26 -30 50 -40 58 -41 114 -3 163 24 33 25 37 12 61 l-15 26
-188 3 c-126 2 -185 -1 -181 -8 3 -5 1 -10 -4 -10 -6 0 -11 5 -11 10 0 9 -848
11 -905 2z m324 -157 c17 -20 33 -48 36 -63 3 -15 12 -38 18 -52 11 -20 10
-30 0 -50 -7 -14 -15 -37 -18 -53 -3 -15 -18 -42 -34 -59 -38 -43 -90 -43
-126 -1 -14 15 -25 34 -25 42 0 8 -10 35 -21 59 -14 27 -18 47 -12 51 6 3 13
23 17 43 11 60 67 115 117 117 10 1 31 -15 48 -34z m183 -24 c-6 -3 -10 -53
-10 -114 l0 -107 28 0 c24 0 29 5 32 27 2 17 10 29 21 31 15 3 17 -5 17 -57
l0 -61 -95 0 c-88 0 -95 2 -95 20 0 10 8 23 17 29 13 7 17 20 14 53 -1 23 -7
48 -12 55 -7 7 -6 14 1 18 16 10 13 102 -5 109 -8 3 -15 14 -15 25 0 17 8 20
53 23 48 3 52 1 55 -21 2 -13 -1 -27 -6 -30z m294 27 c12 -10 29 -38 39 -61 9
-23 21 -50 26 -59 5 -10 5 -27 0 -40 -5 -13 -12 -35 -15 -50 -4 -15 -20 -43
-37 -63 -30 -34 -33 -35 -105 -35 l-74 0 0 30 c0 17 5 30 10 30 17 0 12 87 -5
94 -8 3 -15 10 -15 16 0 5 7 10 15 10 20 0 21 86 1 106 -8 7 -12 22 -10 32 5
15 14 17 77 14 54 -3 77 -9 93 -24z m-809 -100 c-3 -8 -6 -5 -6 6 -1 11 2 17
5 13 3 -3 4 -12 1 -19z m1199 -73 l18 -55 70 0 c79 -1 80 5 -6 -64 l-37 -29
21 -51 c11 -28 22 -57 25 -64 3 -7 -22 4 -56 24 l-61 36 -47 -31 c-25 -17 -50
-31 -54 -31 -5 0 1 21 11 46 11 25 20 51 20 58 0 7 -20 30 -45 52 -24 21 -45
42 -45 47 0 4 28 7 63 7 l63 0 18 55 c9 30 19 55 21 55 2 0 12 -25 21 -55z
m-1026 -185 c0 -5 -4 -10 -10 -10 -5 0 -10 5 -10 10 0 6 5 10 10 10 6 0 10 -4
10 -10z m-15 -40 c3 -5 -1 -10 -9 -10 -9 0 -16 5 -16 10 0 6 4 10 9 10 6 0 13
-4 16 -10z"/>
<path d="M490 2521 c-5 -21 -8 -51 -5 -67 2 -16 7 -46 10 -66 5 -32 10 -38 31
-38 29 0 32 6 38 89 7 95 0 121 -35 121 -24 0 -30 -5 -39 -39z"/>
<path d="M987 2564 c-4 -4 -7 -54 -7 -111 0 -103 0 -103 25 -103 15 0 29 8 36
21 19 36 10 189 -11 189 -5 0 -15 2 -22 5 -8 3 -17 2 -21 -1z"/>
<path d="M3162 2731 c-8 -23 -5 -35 19 -71 40 -60 36 -79 -44 -206 -18 -28
-38 -57 -45 -65 -7 -8 -25 -32 -41 -55 -37 -53 -109 -88 -163 -80 -51 8 -64
-15 -63 -114 l0 -75 385 -1 c212 -1 392 3 401 7 9 5 19 6 22 2 4 -3 71 -6 149
-5 79 0 209 1 291 1 l147 1 0 25 0 24 -214 0 c-160 1 -216 -3 -219 -12 -4 -9
-6 -9 -6 1 -1 8 -18 12 -48 12 -111 0 -213 13 -213 26 0 11 32 14 156 14 115
0 153 3 148 12 -5 7 -3 8 7 3 7 -5 160 -11 339 -13 318 -3 326 -3 344 17 16
17 18 29 11 73 -4 29 -7 73 -6 97 1 25 -3 47 -8 50 -6 4 -3 19 6 39 14 28 14
39 3 71 -7 23 -10 56 -6 82 20 129 19 136 -6 151 -18 10 -156 13 -680 15
l-656 2 -10 -28z m618 -1 c8 -5 11 -10 5 -10 -5 0 -17 5 -25 10 -8 5 -10 10
-5 10 6 0 17 -5 25 -10z m350 -14 c0 -3 -4 -8 -10 -11 -5 -3 -10 -1 -10 4 0 6
5 11 10 11 6 0 10 -2 10 -4z m330 -32 c0 -2 -7 -4 -15 -4 -8 0 -15 4 -15 10 0
5 7 7 15 4 8 -4 15 -8 15 -10z m-413 -65 c8 -8 17 -8 32 0 20 11 21 10 21 -44
0 -46 -3 -55 -18 -55 -9 0 -22 10 -27 23 -13 28 -39 29 -43 0 -2 -14 6 -30 25
-45 91 -75 105 -120 57 -177 -24 -28 -30 -31 -85 -29 -47 1 -59 5 -54 16 3 7
5 31 5 53 0 48 26 54 41 9 11 -31 17 -34 43 -24 27 10 18 44 -21 83 -82 79
-92 120 -42 170 32 33 48 38 66 20z m-527 -31 c1 -18 7 -55 14 -82 11 -43 14
-47 19 -25 4 14 9 51 13 82 5 45 10 57 24 57 13 0 19 -12 24 -50 4 -28 11 -60
15 -73 8 -20 10 -18 20 21 7 24 9 57 6 73 -6 28 -5 29 29 29 29 0 36 -4 36
-20 0 -11 -4 -20 -9 -20 -6 0 -12 -21 -16 -47 -17 -141 -43 -243 -61 -243 -6
0 -17 29 -24 65 -14 66 -30 87 -30 39 0 -40 -22 -104 -35 -104 -12 0 -50 118
-65 204 -5 26 -16 59 -25 72 -26 40 -20 54 25 54 38 0 40 -1 40 -32z m398 -18
c2 -43 -1 -50 -17 -50 -13 0 -21 8 -23 23 -2 14 -11 23 -25 25 -21 3 -23 -1
-23 -37 0 -36 2 -41 23 -38 19 2 22 -3 22 -33 0 -31 -3 -35 -22 -32 -21 3 -23
-1 -23 -37 0 -36 3 -41 23 -41 16 0 28 9 35 25 18 40 30 29 34 -30 l3 -55 -92
0 c-85 0 -93 2 -93 19 0 11 5 23 11 26 6 4 10 37 10 73 -1 37 2 88 5 115 4 31
2 47 -5 47 -6 0 -11 11 -11 25 0 25 1 25 83 25 l83 0 2 -50z m412 26 c0 -13 3
-38 6 -55 6 -27 4 -31 -15 -31 -14 0 -21 6 -21 18 0 19 -18 42 -33 42 -5 0 -6
-24 -3 -52 3 -29 7 -80 9 -113 2 -33 8 -72 12 -87 l7 -28 -56 0 c-53 0 -56 1
-56 24 0 13 4 26 9 28 11 4 18 89 8 105 -4 6 -3 14 3 18 16 10 13 105 -4 105
-8 0 -17 -13 -21 -30 -4 -16 -13 -30 -21 -30 -10 0 -14 14 -14 55 l0 55 95 0
c93 0 95 0 95 -24z m-1050 -147 c0 -11 7 -33 15 -49 15 -28 19 -30 77 -30 l62
0 -47 -43 c-26 -23 -47 -47 -47 -54 0 -6 9 -32 20 -57 10 -25 16 -46 12 -46
-5 0 -29 14 -56 30 l-47 30 -46 -35 c-41 -31 -63 -42 -63 -32 0 2 9 30 20 62
l20 57 -45 40 c-25 22 -45 45 -45 50 0 5 23 8 51 6 56 -3 57 -2 84 65 15 39
35 42 35 6z m586 -218 c0 -11 -4 -17 -8 -15 -4 3 -8 12 -8 20 0 8 4 14 8 14 4
0 8 -9 8 -19z m446 -3 c-7 -7 -12 -8 -12 -2 0 14 12 26 19 19 2 -3 -1 -11 -7
-17z m-812 -138 c0 -5 -4 -10 -10 -10 -5 0 -10 5 -10 10 0 6 5 10 10 10 6 0
10 -4 10 -10z"/>
<path d="M4338 2122 c-20 -2 -28 -9 -28 -23 0 -17 6 -20 42 -17 30 2 44 8 46
19 3 18 -19 26 -60 21z"/>
<path d="M310 2111 c0 -19 32 -41 61 -41 24 0 29 4 29 25 0 23 -4 25 -45 25
-25 0 -45 -4 -45 -9z"/>
<path d="M122 2022 c-25 -35 -28 -66 -8 -113 19 -47 28 -139 14 -139 -11 0 -4
-81 9 -103 15 -25 1 -120 -23 -157 l-25 -37 27 -49 26 -49 -6 -165 c-4 -91
-12 -183 -18 -205 -6 -22 -13 -77 -15 -122 -4 -66 -1 -87 13 -108 20 -30 14
-30 169 3 85 19 188 33 335 48 36 3 83 10 106 15 45 9 73 12 378 34 115 8 233
15 262 15 33 0 54 4 54 11 0 8 4 8 13 2 7 -5 78 -6 172 -3 88 4 302 8 475 9
234 1 316 5 322 14 5 8 8 8 8 1 0 -9 115 -13 413 -18 226 -3 472 -9 545 -12
104 -5 132 -3 132 7 0 8 4 7 13 -4 9 -13 40 -19 142 -27 212 -16 356 -30 420
-40 33 -5 83 -12 110 -15 28 -4 100 -16 160 -27 246 -45 236 -44 262 -14 19
23 23 38 23 94 0 59 -13 117 -31 147 -4 6 -12 42 -19 81 -9 52 -10 80 -2 102
6 17 10 64 10 104 -1 41 4 83 11 96 8 15 10 44 5 90 -5 51 -2 77 10 106 15 36
15 44 0 100 -34 129 -37 171 -12 219 16 32 12 96 -8 118 -17 19 -26 21 -104
15 -47 -3 -170 -12 -273 -19 -162 -10 -191 -15 -202 -30 -8 -12 -16 -14 -20
-8 -3 6 0 11 7 11 10 0 10 2 0 9 -8 5 -279 9 -602 10 l-588 2 -26 -33 c-13
-18 -52 -47 -85 -63 -58 -29 -75 -45 -48 -45 24 0 67 -55 87 -111 14 -37 20
-79 20 -139 0 -56 5 -94 15 -110 27 -47 28 -52 13 -79 -9 -15 -18 -66 -22
-119 -12 -169 -59 -271 -135 -292 -117 -31 -201 82 -201 272 -1 104 -13 157
-41 179 l-22 17 31 16 c32 16 32 17 32 95 0 73 23 175 50 223 6 10 10 19 10
20 0 2 -30 2 -67 1 -38 -1 -83 -2 -102 -3 -32 0 -33 -1 -18 -18 24 -26 47
-109 47 -169 0 -73 -33 -158 -71 -180 -34 -20 -36 -29 -9 -43 36 -19 46 -50
60 -195 13 -132 19 -155 46 -166 27 -10 32 -40 9 -59 -24 -20 -94 -16 -117 7
-25 25 -35 70 -48 213 -11 120 -26 160 -60 160 -29 0 -34 -35 -26 -184 5 -96
11 -135 22 -148 25 -27 7 -39 -54 -38 -32 1 -68 0 -82 -2 -19 -2 -26 2 -28 18
-2 11 4 27 13 34 12 10 15 40 15 171 0 101 -4 160 -11 164 -6 4 -8 14 -4 22 3
9 -2 24 -12 35 -16 18 -15 19 5 34 21 14 22 22 22 169 0 148 -1 155 -24 182
-31 37 -21 64 16 45 34 -18 120 -32 115 -19 -2 6 -19 15 -38 21 -56 18 -115
53 -142 86 l-26 30 -342 -1 c-228 0 -348 -4 -356 -11 -9 -7 -13 -7 -13 0 0 13
-198 13 -206 0 -3 -5 -11 -4 -19 2 -18 15 -36 4 -28 -15 3 -10 -1 -15 -12 -15
-11 0 -15 6 -11 18 5 15 -5 17 -116 20 -81 2 -123 0 -128 -8 -4 -7 -15 -8 -31
-2 -13 5 -69 10 -124 11 -55 1 -140 6 -190 12 -220 24 -199 25 -223 -9z m753
-32 c3 -5 1 -10 -4 -10 -6 0 -11 5 -11 10 0 6 2 10 4 10 3 0 8 -4 11 -10z
m375 0 c0 -5 -5 -10 -11 -10 -5 0 -7 5 -4 10 3 6 8 10 11 10 2 0 4 -4 4 -10z
m-938 -74 c4 -6 11 -6 20 0 7 6 40 11 74 13 l61 2 46 -51 c58 -64 72 -109 72
-225 0 -97 -25 -174 -65 -202 -25 -18 -25 -28 -1 -61 24 -34 38 -109 45 -240
6 -106 16 -142 40 -142 13 0 26 -20 26 -40 0 -17 -62 -80 -79 -80 -23 0 -60
35 -72 68 -15 39 -39 206 -39 270 0 93 -31 150 -66 121 -11 -9 -14 -45 -14
-153 0 -152 8 -206 34 -231 18 -19 19 -24 7 -44 -6 -10 -20 -12 -47 -8 -25 4
-43 2 -54 -7 -8 -7 -29 -16 -47 -19 -41 -8 -50 14 -23 58 19 30 20 50 21 227
0 227 -2 251 -24 273 -16 16 -16 19 9 48 l26 30 -4 171 c-3 158 -5 174 -26
208 -13 21 -21 42 -17 48 6 10 85 -17 97 -34z m4129 -23 c43 -47 57 -88 66
-195 9 -112 -10 -191 -59 -244 l-38 -41 24 -22 c31 -29 36 -55 46 -250 l8
-165 32 -26 c29 -24 31 -28 19 -53 -14 -31 -50 -44 -87 -31 -47 17 -65 73 -79
243 -6 86 -12 166 -13 177 0 12 -9 33 -21 48 -17 21 -24 24 -35 15 -21 -17
-20 -337 1 -365 8 -10 15 -30 15 -43 0 -22 -3 -23 -37 -16 -21 4 -44 11 -50
17 -9 7 -17 7 -27 -1 -8 -7 -25 -9 -40 -5 -20 5 -26 12 -26 35 0 18 7 32 20
39 20 11 21 20 19 163 -1 166 -11 241 -34 267 -14 15 -13 20 10 46 24 28 25
32 25 195 0 154 -2 168 -21 193 -33 42 -20 55 49 51 33 -1 66 1 73 7 8 5 38 7
68 5 48 -3 58 -8 92 -44z m-2498 -105 c5 -100 4 -128 -6 -128 -7 0 -18 20 -26
44 -19 66 -52 91 -114 87 -16 -1 -17 -12 -15 -133 l3 -133 26 -3 c21 -3 28 4
44 38 10 22 22 39 28 37 11 -3 17 -297 6 -297 -4 0 -14 18 -20 40 -15 48 -30
63 -61 58 -22 -3 -23 -8 -31 -113 -10 -134 -5 -190 18 -215 35 -38 -10 -64
-70 -41 -12 5 -29 2 -47 -8 -22 -13 -30 -13 -40 -3 -10 10 -9 18 4 40 14 23
17 58 19 168 1 85 -3 148 -9 161 -8 14 -8 23 0 31 9 9 7 19 -9 40 l-21 29 20
20 c18 19 20 34 21 169 0 147 -5 194 -24 194 -5 0 -9 9 -9 20 0 29 45 27 61
-2 l12 -22 17 21 c15 19 22 20 89 13 55 -6 79 -4 99 6 14 7 27 12 28 11 1 -1
4 -59 7 -129z m977 110 c11 6 32 12 46 12 24 0 26 -3 20 -32 -5 -31 -1 -57 23
-140 6 -18 22 -82 36 -143 35 -144 34 -140 46 -128 7 7 10 75 7 200 -3 165 -5
192 -21 207 -9 10 -15 22 -12 27 10 16 54 10 64 -8 9 -17 10 -17 16 0 5 11 18
17 41 17 39 0 41 -4 14 -45 -18 -27 -20 -47 -20 -187 0 -126 3 -160 15 -172
19 -18 19 -25 -1 -65 -13 -26 -15 -61 -11 -209 2 -97 6 -186 8 -197 5 -25 -26
-32 -50 -11 -12 11 -20 13 -28 5 -6 -6 -21 -9 -34 -7 -19 2 -24 9 -25 33 -1
31 -23 140 -49 238 -8 32 -15 66 -15 75 0 9 -10 33 -21 52 -20 32 -23 33 -30
15 -4 -11 -8 -90 -8 -176 -1 -144 1 -158 20 -183 11 -15 18 -33 15 -41 -7 -19
-50 -19 -66 0 -8 9 -17 12 -24 7 -19 -15 -56 -21 -62 -10 -4 5 3 23 15 39 20
26 21 41 21 205 0 145 -3 181 -15 194 -14 15 -14 18 0 30 12 10 15 42 15 180
0 153 -2 170 -20 193 -19 24 -19 27 -4 35 12 6 26 4 45 -7 24 -13 32 -14 49
-3z m1180 -114 c0 -78 -4 -133 -9 -130 -5 4 -16 27 -25 53 -21 62 -42 83 -82
83 -43 0 -46 -11 -42 -160 l3 -115 25 0 c19 0 30 10 45 37 11 21 23 38 28 38
4 0 8 -61 9 -135 0 -74 1 -140 2 -147 1 -6 -5 -13 -11 -15 -7 -3 -13 3 -13 12
0 25 -27 72 -46 79 -36 14 -44 -11 -44 -141 0 -133 8 -163 43 -163 37 0 64 26
83 80 32 89 63 95 45 10 -6 -28 -11 -92 -11 -142 0 -81 -2 -90 -17 -83 -37 14
-209 35 -240 29 -42 -8 -54 16 -30 58 14 25 17 60 17 215 0 170 -2 187 -20
214 l-21 28 21 13 c19 12 20 22 20 178 0 131 -3 170 -15 186 -28 37 -20 41 88
36 56 -2 118 0 137 6 63 18 60 24 60 -124z m-3380 118 c0 -4 32 -8 72 -8 45 0
73 -4 75 -11 3 -8 16 -5 40 8 20 11 41 18 48 16 8 -4 12 -44 13 -131 2 -105 0
-126 -13 -126 -8 0 -19 17 -27 41 -22 74 -91 122 -126 87 -8 -8 -12 -53 -12
-135 0 -119 1 -124 23 -132 26 -10 41 -1 57 39 26 63 35 34 35 -109 0 -133 -7
-177 -21 -135 -25 75 -36 87 -72 77 -16 -4 -21 -16 -26 -67 -7 -58 1 -202 11
-218 2 -5 17 -8 32 -8 40 0 85 49 105 115 10 30 22 55 27 55 10 0 8 -265 -2
-274 -2 -2 -24 -1 -49 4 -25 4 -52 4 -60 0 -9 -5 -40 -11 -70 -13 -30 -3 -74
-8 -97 -12 -37 -7 -43 -5 -43 10 0 10 8 27 18 38 14 16 17 44 20 189 3 130 1
173 -9 179 -10 6 -10 11 1 23 11 14 10 22 -6 51 -17 32 -17 35 -1 53 15 16 17
42 17 178 -1 124 -4 163 -15 178 -24 32 -18 46 20 46 19 0 35 -4 35 -8z m344
0 c8 -13 87 -13 103 0 20 17 83 -5 126 -45 56 -51 80 -115 87 -234 5 -87 9
-106 28 -126 19 -20 21 -26 8 -36 -16 -13 -22 -50 -34 -191 -11 -132 -48 -207
-120 -244 -15 -8 -61 -16 -102 -20 -41 -3 -92 -8 -112 -12 -34 -6 -38 -4 -38
15 0 12 10 35 21 50 20 28 21 38 18 209 -4 153 -7 183 -21 199 -17 18 -16 20
2 36 18 15 20 30 20 171 0 138 -2 156 -20 179 -28 35 -26 57 4 57 14 0 27 -4
30 -8z m2286 -7 c30 -2 60 1 67 6 8 7 23 7 47 -2 29 -10 40 -10 60 0 51 28 56
15 56 -139 0 -77 -2 -140 -5 -140 -9 0 -35 59 -35 79 0 50 -52 108 -72 79 -5
-7 -7 -70 -5 -140 3 -107 7 -131 22 -148 17 -19 18 -23 5 -43 -11 -17 -16 -65
-18 -198 -3 -150 -1 -177 12 -188 9 -8 16 -24 16 -37 0 -20 -5 -24 -27 -24
-16 0 -40 7 -55 14 -16 9 -30 11 -33 5 -4 -5 -19 -9 -36 -9 -24 0 -29 4 -29
23 0 13 9 32 21 43 20 18 21 27 17 179 -3 135 -6 165 -22 191 -18 31 -18 32 3
53 19 19 21 32 21 150 0 72 -4 132 -10 136 -19 12 -50 -21 -74 -79 -13 -33
-29 -62 -36 -64 -8 -3 -10 2 -6 14 4 14 15 191 16 253 0 2 10 0 23 -3 12 -4
47 -9 77 -11z m316 0 c19 -12 24 -12 40 0 22 17 64 20 64 5 0 -6 -8 -22 -17
-36 -13 -20 -17 -58 -21 -182 -4 -150 -3 -158 17 -176 21 -19 28 -46 12 -46
-17 0 -22 -34 -7 -48 13 -14 13 -17 -2 -28 -14 -10 -18 -35 -20 -158 -4 -134
-2 -149 17 -182 31 -53 28 -68 -11 -59 -18 5 -57 7 -85 6 -52 -2 -53 -2 -53
27 0 18 6 32 16 36 24 9 17 359 -8 397 -16 25 -15 27 2 45 16 16 19 41 23 174
4 149 0 185 -26 201 -15 10 0 39 20 39 10 0 28 -7 39 -15z m-1674 -948 c-7 -8
-8 -18 -4 -22 4 -5 1 -5 -6 -1 -9 5 -9 12 -1 27 6 12 13 18 16 15 3 -3 1 -12
-5 -19z m-1117 -57 c3 -5 1 -10 -4 -10 -6 0 -11 5 -11 10 0 6 2 10 4 10 3 0 8
-4 11 -10z m-70 -10 c3 -5 -1 -10 -9 -10 -9 0 -16 5 -16 10 0 6 4 10 9 10 6 0
13 -4 16 -10z"/>
<path d="M270 1799 c0 -5 5 -7 10 -4 6 3 10 8 10 11 0 2 -4 4 -10 4 -5 0 -10
-5 -10 -11z"/>
<path d="M374 1799 c-12 -20 -15 -292 -3 -300 17 -10 45 0 71 28 21 22 23 33
23 128 0 96 -2 105 -24 129 -26 27 -55 34 -67 15z m41 -239 c3 -5 1 -10 -4
-10 -6 0 -11 5 -11 10 0 6 2 10 4 10 3 0 8 -4 11 -10z"/>
<path d="M4305 1799 c-4 -6 -9 -78 -11 -160 l-5 -149 24 0 c46 0 73 51 81 152
6 76 -6 134 -31 153 -22 17 -49 19 -58 4z"/>
<path d="M4475 1740 c3 -5 8 -10 11 -10 2 0 4 5 4 10 0 6 -5 10 -11 10 -5 0
-7 -4 -4 -10z"/>
<path d="M4315 1450 c3 -5 8 -10 11 -10 2 0 4 5 4 10 0 6 -5 10 -11 10 -5 0
-7 -4 -4 -10z"/>
<path d="M4240 1079 c0 -5 5 -7 10 -4 6 3 10 8 10 11 0 2 -4 4 -10 4 -5 0 -10
-5 -10 -11z"/>
<path d="M4441 1034 c0 -11 3 -14 6 -6 3 7 2 16 -1 19 -3 4 -6 -2 -5 -13z"/>
<path d="M1730 1659 c0 -5 5 -7 10 -4 6 3 10 8 10 11 0 2 -4 4 -10 4 -5 0 -10
-5 -10 -11z"/>
<path d="M1708 1463 c7 -3 16 -2 19 1 4 3 -2 6 -13 5 -11 0 -14 -3 -6 -6z"/>
<path d="M2930 1525 c0 -36 3 -43 16 -38 12 4 14 14 10 36 -3 16 -6 33 -6 38
0 5 -4 9 -10 9 -5 0 -10 -20 -10 -45z"/>
<path d="M3040 1290 c0 -5 7 -7 15 -4 8 4 15 8 15 10 0 2 -7 4 -15 4 -8 0 -15
-4 -15 -10z"/>
<path d="M3855 1880 c-3 -5 -1 -10 4 -10 6 0 11 5 11 10 0 6 -2 10 -4 10 -3 0
-8 -4 -11 -10z"/>
<path d="M825 1840 c3 -5 8 -10 11 -10 2 0 4 5 4 10 0 6 -5 10 -11 10 -5 0 -7
-4 -4 -10z"/>
<path d="M760 1480 c0 -5 5 -10 11 -10 5 0 7 5 4 10 -3 6 -8 10 -11 10 -2 0
-4 -4 -4 -10z"/>
<path d="M1160 1658 c0 -107 3 -135 16 -149 15 -17 15 -21 0 -59 -12 -31 -16
-75 -16 -185 l0 -145 28 6 c56 13 64 32 75 171 6 71 7 138 2 149 -4 10 -7 24
-5 29 8 25 -3 252 -12 270 -16 28 -39 44 -65 45 -23 0 -23 -2 -23 -132z"/>
<path d="M3380 1549 c0 -5 5 -7 10 -4 6 3 10 8 10 11 0 2 -4 4 -10 4 -5 0 -10
-5 -10 -11z"/>
<path d="M3670 1280 c0 -11 2 -20 4 -20 2 0 6 9 9 20 3 11 1 20 -4 20 -5 0 -9
-9 -9 -20z"/>
<path d="M2568 1783 c-11 -13 -17 -49 -21 -118 -5 -83 -3 -103 10 -117 15 -17
15 -20 -2 -38 -15 -17 -17 -26 -8 -53 5 -19 6 -44 1 -62 -13 -46 1 -216 20
-237 42 -49 74 2 79 128 4 82 2 98 -13 116 -18 19 -18 20 -1 29 20 12 23 59 5
77 -10 10 -10 17 0 32 7 12 12 58 12 118 0 85 -3 101 -20 120 -25 27 -42 28
-62 5z"/>
<path d="M2136 1744 c-3 -26 -6 -89 -6 -141 l0 -95 27 7 c52 13 73 59 73 158
0 85 -16 117 -59 117 -26 0 -29 -4 -35 -46z"/>
<path d="M2475 1780 c-3 -5 -1 -10 4 -10 6 0 11 5 11 10 0 6 -2 10 -4 10 -3 0
-8 -4 -11 -10z"/>
<path d="M2040 1489 c0 -5 5 -7 10 -4 6 3 10 8 10 11 0 2 -4 4 -10 4 -5 0 -10
-5 -10 -11z"/>
<path d="M2485 1279 c-4 -6 -5 -12 -2 -15 2 -3 7 2 10 11 7 17 1 20 -8 4z"/>
<path d="M2060 1230 c0 -5 5 -10 10 -10 6 0 10 5 10 10 0 6 -4 10 -10 10 -5 0
-10 -4 -10 -10z"/>
<path d="M2080 1151 c0 -5 5 -13 10 -16 6 -3 10 -2 10 4 0 5 -4 13 -10 16 -5
3 -10 2 -10 -4z"/>
<path d="M2339 803 c-14 -48 -14 -48 -61 -51 l-46 -3 40 -38 41 -38 -16 -48
c-10 -27 -16 -50 -14 -51 2 -2 20 8 40 21 38 26 62 31 72 15 3 -5 19 -18 35
-30 l29 -20 -11 32 c-6 18 -12 49 -15 68 -3 31 1 38 31 60 l34 25 -50 5 c-50
5 -51 5 -66 53 -8 26 -18 47 -22 47 -3 0 -13 -21 -21 -47z"/>
<path d="M1187 698 c-15 -5 -25 -14 -21 -19 6 -10 784 -10 884 0 62 7 64 8 37
19 -36 15 -858 16 -900 0z"/>
<path d="M2663 703 c-38 -5 -43 -18 -10 -27 30 -8 922 -8 930 1 4 3 2 12 -4
20 -9 10 -93 13 -448 11 -240 0 -451 -3 -468 -5z"/>
</g>
</svg>
